<?xml version="1.0" encoding="UTF-8"?>
<svg version="1.1" xmlns="http://www.w3.org/2000/svg" width="414" height="346">
<path d="M0 0 C0.73442825 -0.00150055 1.46885651 -0.0030011 2.22554016 -0.00454712 C4.62567518 -0.00691164 7.02566106 -0.00063276 9.42578125 0.0078125 C10.24006592 0.01002808 11.05435059 0.01224365 11.8933106 0.01452637 C17.50854911 0.03252215 23.12332414 0.07450687 28.73828125 0.1328125 C30.59960693 0.15166504 30.59960693 0.15166504 32.49853516 0.17089844 C54.04041147 0.48121798 54.04041147 0.48121798 63.73828125 5.1328125 C64.81078125 5.64070313 65.88328125 6.14859375 66.98828125 6.671875 C74.28735908 10.37210195 80.63863583 14.68926339 86.73828125 20.1328125 C87.47433594 20.78636719 88.21039063 21.43992187 88.96875 22.11328125 C105.43225735 37.64434216 119.41632895 60.86237037 123.73828125 83.1328125 C123.9846936 84.22638062 123.9846936 84.22638062 124.23608398 85.34204102 C125.61038636 91.63457299 126.19288891 97.76507847 126.42578125 104.1953125 C126.46268066 105.20480957 126.49958008 106.21430664 126.53759766 107.25439453 C127.7580994 146.70476641 116.4403924 192.83432908 88.8046875 222.328125 C78.36543116 233.09312592 78.36543116 233.09312592 74.17578125 233.1953125 C70.27093563 231.49320031 69.46602365 227.9547208 67.93774414 224.12866211 C67.11314062 221.95197892 66.32696209 219.7647003 65.55078125 217.5703125 C65.27814453 216.82845703 65.00550781 216.08660156 64.72460938 215.32226562 C62.06528453 207.83749921 62.06528453 207.83749921 62.73828125 204.1328125 C64.28515625 201.94140625 64.28515625 201.94140625 66.48828125 199.5703125 C81.61011999 181.82894264 91.50992043 159.96107262 95.73828125 137.1328125 C95.96451172 135.91464844 95.96451172 135.91464844 96.1953125 134.671875 C97.87694308 122.96772619 97.18943283 110.64531798 94.73828125 99.1328125 C94.59003906 98.215 94.44179688 97.2971875 94.2890625 96.3515625 C91.39918464 80.7749159 84.37960415 63.7456296 74.73828125 51.1328125 C74.06410156 50.20726562 73.38992188 49.28171875 72.6953125 48.328125 C67.30106322 41.28218523 60.68635844 33.52912829 51.69036865 31.41731262 C48.42036899 31.18493981 45.23375978 31.17950043 41.95703125 31.2734375 C40.78112427 31.27204773 39.60521729 31.27065796 38.39367676 31.26922607 C34.67390198 31.2695353 30.95752725 31.32249779 27.23828125 31.3828125 C23.49104959 31.42174603 19.74462758 31.44911882 15.99719238 31.45355225 C13.67437294 31.45839796 11.35148242 31.48426422 9.0291748 31.53326416 C7.9837854 31.53936707 6.938396 31.54546997 5.86132812 31.55175781 C4.48213196 31.5746286 4.48213196 31.5746286 3.07507324 31.59796143 C0.73828125 31.1328125 0.73828125 31.1328125 -1.02046204 29.24380493 C-3.24240773 25.46496492 -4.52209284 21.38724156 -5.94921875 17.2578125 C-6.26955078 16.37222656 -6.58988281 15.48664062 -6.91992188 14.57421875 C-8.53374693 9.95640805 -9.69599237 6.09828071 -9.26171875 1.1328125 C-6.2887744 -0.35365967 -3.25898585 -0.00908867 0 0 Z " fill="#3CB25F" transform="translate(223.26171875,25.8671875)"/>
<path d="M0 0 C1.32 0 2.64 0 4 0 C4.24645264 0.68924561 4.49290527 1.37849121 4.74682617 2.08862305 C10.06098852 17.07116846 10.06098852 17.07116846 15.6875 31.9375 C17.52846133 36.64147214 19.15416053 41.39077679 20.73046875 46.1875 C23.92928482 55.84778061 27.25971527 65.45914947 30.625 75.0625 C31.07122208 76.33938187 31.07122208 76.33938187 31.52645874 77.64205933 C34.80229645 87.01396856 38.11362189 96.37054672 41.54296875 105.6875 C41.8217688 106.44630966 42.10056885 107.20511932 42.38781738 107.98692322 C43.70046114 111.55576431 45.0212792 115.12122578 46.35595703 118.68188477 C46.82734141 119.95582054 47.29854339 121.22982383 47.76953125 122.50390625 C48.17792236 123.59517822 48.58631348 124.6864502 49.00708008 125.81079102 C50.06350528 129.20397578 50.58915979 132.47489644 51 136 C46.13759896 139.24160069 40.77875536 138.40979602 35.0625 138.4375 C33.27295898 138.48680664 33.27295898 138.48680664 31.44726562 138.53710938 C30.30064453 138.54419922 29.15402344 138.55128906 27.97265625 138.55859375 C26.39883179 138.57877563 26.39883179 138.57877563 24.79321289 138.59936523 C22 138 22 138 19.79052734 135.88867188 C17.83064177 132.72677304 16.59163934 129.73970194 15.37890625 126.22265625 C15.15226791 125.57485703 14.92562958 124.9270578 14.69212341 124.2596283 C13.97281129 122.19705169 13.26734437 120.13005962 12.5625 118.0625 C12.09403328 116.70996248 11.62463901 115.35774586 11.15429688 114.00585938 C10.2250864 111.33233514 9.30069241 108.6572173 8.37939453 105.98095703 C6.3040065 99.96916271 4.15205822 93.98469899 2 88 C-3.4203546 96.1305319 -6.41403719 105.99653279 -9.5625 115.1875 C-16.33177513 134.88785009 -16.33177513 134.88785009 -21 138 C-23.8190918 138.22705078 -23.8190918 138.22705078 -27.19921875 138.1953125 C-28.40771484 138.18886719 -29.61621094 138.18242187 -30.86132812 138.17578125 C-32.7552832 138.15064453 -32.7552832 138.15064453 -34.6875 138.125 C-35.96173828 138.11597656 -37.23597656 138.10695312 -38.54882812 138.09765625 C-41.69940627 138.07405641 -44.84960983 138.04113194 -48 138 C-48.89734203 134.48263371 -49.09386707 132.28798741 -47.84765625 128.875 C-47.57026611 128.09809814 -47.29287598 127.32119629 -47.00708008 126.52075195 C-46.69536865 125.68890381 -46.38365723 124.85705566 -46.0625 124 C-45.74112061 123.1133667 -45.41974121 122.2267334 -45.08862305 121.31323242 C-42.57863713 114.43214757 -39.96054444 107.59071552 -37.32763672 100.75585938 C-34.44438262 93.24611432 -31.6918488 85.69121377 -28.95654297 78.1267395 C-21.22195039 56.73721481 -13.25185031 35.44032419 -4.81567383 14.31591797 C-2.94230949 9.58779834 -1.29361238 4.91974865 0 0 Z " fill="#3CB25F" transform="translate(207,31)"/>
<path d="M0 0 C0.75957001 0.00719055 1.51914001 0.0143811 2.30172729 0.02178955 C3.10181213 0.0214975 3.90189697 0.02120544 4.72622681 0.02090454 C7.3776423 0.02230077 10.02877871 0.03787564 12.68014526 0.05352783 C14.51574551 0.05725692 16.35134774 0.06010438 18.18695068 0.06210327 C23.02360508 0.06974793 27.86013979 0.08940353 32.69674683 0.11151123 C37.62999858 0.13195176 42.56326964 0.14110115 47.49655151 0.15118408 C57.18019791 0.17264866 66.8637554 0.20679461 76.54733276 0.24884033 C77.69150089 3.68134472 77.40938766 4.32871214 76.18405151 7.59259033 C75.87403198 8.42661377 75.56401245 9.26063721 75.24459839 10.11993408 C74.7447644 11.42124268 74.7447644 11.42124268 74.23483276 12.74884033 C73.91321167 13.61637939 73.59159058 14.48391846 73.26022339 15.37774658 C71.90733255 18.97249143 70.68956866 22.03548648 68.54733276 25.24884033 C65.69979752 26.30288156 63.01545442 26.36686818 60.00045776 26.34649658 C59.15612183 26.34327393 58.31178589 26.34005127 57.44186401 26.33673096 C56.5691687 26.32835205 55.69647339 26.31997314 54.79733276 26.31134033 C53.9091687 26.30682861 53.02100464 26.30231689 52.10592651 26.29766846 C49.91965947 26.28591433 47.73353098 26.26948282 45.54733276 26.24884033 C45.15030151 27.46700439 44.75327026 28.68516846 44.34420776 29.94024658 C42.29881593 36.07282948 40.04958577 42.12728781 37.79733276 48.18634033 C37.35703735 49.3726001 36.91674194 50.55885986 36.46310425 51.78106689 C33.88678178 58.70314605 31.28426085 65.61403499 28.60983276 72.49884033 C28.34009644 73.19356445 28.07036011 73.88828857 27.79244995 74.60406494 C23.03090459 86.76526851 23.03090459 86.76526851 21.54733276 88.24884033 C19.32878012 88.33667575 17.1074478 88.35578642 14.88717651 88.34649658 C13.89047691 88.34437416 13.89047691 88.34437416 12.87364197 88.34220886 C10.74399377 88.33659551 8.61444937 88.32404087 6.48483276 88.31134033 C5.04407907 88.30632705 3.60332373 88.30176384 2.16256714 88.29766846 C-1.37587826 88.28662178 -4.91426263 88.26934825 -8.45266724 88.24884033 C-7.93917322 82.60040613 -6.77382077 77.86655416 -4.57766724 72.62384033 C-1.08682541 63.97949075 2.15997567 55.2538328 5.35983276 46.49884033 C5.84466665 45.17640117 6.32952938 43.85397258 6.81442261 42.53155518 C8.79236351 37.1246308 10.74827042 31.71864913 12.54733276 26.24884033 C11.94260132 26.25931396 11.33786987 26.2697876 10.71481323 26.28057861 C7.95069607 26.32238701 5.18664568 26.34824484 2.42233276 26.37384033 C0.99534058 26.39897705 0.99534058 26.39897705 -0.46047974 26.42462158 C-5.53849978 26.45988561 -9.69754249 26.2821765 -14.45266724 24.24884033 C-9.93905164 0.03944756 -9.93905164 0.03944756 0 0 Z " fill="#3CB25F" transform="translate(132.45266723632813,170.75115966796875)"/>
<path d="M0 0 C0.68797668 -0.00671722 1.37595337 -0.01343445 2.08477783 -0.02035522 C4.36461561 -0.03939155 6.64415991 -0.04326213 8.92407227 -0.04541016 C10.50586571 -0.05183398 12.08765794 -0.05856202 13.66944885 -0.06558228 C16.98750565 -0.07756898 20.30545823 -0.08126166 23.62353516 -0.08007812 C27.87878423 -0.07987481 32.13336638 -0.10718332 36.3884573 -0.14162254 C39.65610331 -0.16384167 42.92358752 -0.16791722 46.19130135 -0.16685867 C47.76022708 -0.16922193 49.32915678 -0.17808609 50.89800835 -0.19352341 C53.09133712 -0.2130849 55.28321112 -0.20738605 57.4765625 -0.1953125 C58.72517563 -0.19816254 59.97378876 -0.20101257 61.26023865 -0.20394897 C64.30297852 0.29052734 64.30297852 0.29052734 66.17193604 2.19320679 C68.09441525 5.75810841 69.33277174 9.45771379 70.61547852 13.29052734 C71.04957031 14.50095703 71.04957031 14.50095703 71.49243164 15.73583984 C71.75604492 16.51701172 72.0196582 17.29818359 72.29125977 18.10302734 C72.53400635 18.81072266 72.77675293 19.51841797 73.02685547 20.24755859 C73.30297852 22.29052734 73.30297852 22.29052734 71.30297852 26.29052734 C64.04297852 26.29052734 56.78297852 26.29052734 49.30297852 26.29052734 C55.83502591 44.77327182 55.83502591 44.77327182 62.61547852 63.16552734 C63.06665039 64.36435547 63.51782227 65.56318359 63.98266602 66.79833984 C64.66830581 68.61183682 65.35467603 70.42507604 66.05004883 72.23486328 C66.79019683 74.16646905 67.51643205 76.10283868 68.24047852 78.04052734 C68.66200195 79.14912109 69.08352539 80.25771484 69.51782227 81.39990234 C70.32870682 84.38524848 70.16432425 85.43648179 69.30297852 88.29052734 C65.22810358 88.41419289 61.1539555 88.50489211 57.07763672 88.56518555 C55.69137548 88.59031954 54.30524664 88.62443327 52.91943359 88.66772461 C50.92676814 88.7284113 48.93313319 88.75407614 46.93969727 88.77880859 C45.74046631 88.80499268 44.54123535 88.83117676 43.30566406 88.8581543 C40.30297852 88.29052734 40.30297852 88.29052734 38.47753906 85.99438477 C36.57096292 81.60541558 36.57096292 81.60541558 35.87329102 79.54052734 C35.63811768 78.85692139 35.40294434 78.17331543 35.16064453 77.46899414 C34.91886475 76.7501001 34.67708496 76.03120605 34.42797852 75.29052734 C33.89952456 73.75485618 33.36956349 72.21970286 32.83813477 70.68505859 C32.57790527 69.93305176 32.31767578 69.18104492 32.04956055 68.40625 C31.04947531 65.57213009 29.96468913 62.77502861 28.86547852 59.97802734 C24.66828043 49.21248681 20.94527448 38.25483272 17.30297852 27.29052734 C16.00880005 27.25294312 16.00880005 27.25294312 14.68847656 27.21459961 C11.48474083 27.1194135 8.28116315 27.02018291 5.07763672 26.91821289 C3.69161869 26.87492516 2.30554945 26.83324571 0.91943359 26.79321289 C-1.07393947 26.7353615 -3.06712713 26.67122958 -5.06030273 26.60693359 C-6.25953369 26.57027588 -7.45876465 26.53361816 -8.69433594 26.49584961 C-11.69702148 26.29052734 -11.69702148 26.29052734 -14.69702148 25.29052734 C-14.15228374 14.758931 -12.25400519 0.07486638 0 0 Z " fill="#3CB25F" transform="translate(220.697021484375,170.70947265625)"/>
<path d="M0 0 C0.76585922 -0.0065712 1.53171844 -0.0131424 2.32078552 -0.01991272 C4.86571336 -0.03969076 7.4105821 -0.05131771 9.95556641 -0.0612793 C10.8224773 -0.06535482 11.6893882 -0.06943035 12.58256912 -0.07362938 C17.1701153 -0.0945085 21.75763139 -0.10880269 26.34521484 -0.11816406 C31.09254895 -0.12923769 35.83941549 -0.16364303 40.58658409 -0.20333576 C44.2290842 -0.22943485 47.87147176 -0.23784985 51.51405716 -0.24144554 C53.26441229 -0.24632825 55.01476185 -0.25798983 56.76502609 -0.27648354 C59.21222111 -0.30073539 61.65819131 -0.29993621 64.10546875 -0.29296875 C64.83182022 -0.30577881 65.55817169 -0.31858887 66.30653381 -0.33178711 C69.57229358 -0.29780907 71.22788596 -0.27365221 73.59996033 2.0796814 C74.66601565 4.1457733 75.54706805 6.12547897 76.28759766 8.3293457 C76.54863281 9.10600586 76.80966797 9.88266602 77.07861328 10.68286133 C77.47016602 11.88652344 77.47016602 11.88652344 77.86962891 13.11450195 C78.14226562 13.91307617 78.41490234 14.71165039 78.69580078 15.53442383 C79.08155273 16.70134766 79.08155273 16.70134766 79.47509766 17.8918457 C79.82350708 18.94553345 79.82350708 18.94553345 80.17895508 20.02050781 C80.68212891 22.17700195 80.68212891 22.17700195 80.68212891 27.17700195 C48.67212891 27.17700195 16.66212891 27.17700195 -16.31787109 27.17700195 C-16.31787109 20.42424528 -16.31787109 20.42424528 -14.60302734 16.2512207 C-14.24660156 15.37272461 -13.89017578 14.49422852 -13.52294922 13.58911133 C-13.14589844 12.68999023 -12.76884766 11.79086914 -12.38037109 10.86450195 C-11.8205957 9.48681641 -11.8205957 9.48681641 -11.24951172 8.08129883 C-8.31382859 0.92457943 -7.82601184 0.02881078 0 0 Z " fill="#3CB25F" transform="translate(175.31787109375,231.822998046875)"/>
<path d="M0 0 C1.15774933 -0.0030011 2.31549866 -0.0060022 3.5083313 -0.00909424 C4.75838959 0.00325256 6.00844788 0.01559937 7.29638672 0.02832031 C8.57714081 0.03019348 9.8578949 0.03206665 11.17745972 0.03399658 C13.88601315 0.03859643 16.59426872 0.05301218 19.30273438 0.07519531 C22.78106493 0.10353409 26.25916147 0.11441271 29.73759651 0.11887741 C33.04889627 0.12402255 36.36011493 0.13856125 39.67138672 0.15332031 C40.92549347 0.15757019 42.17960022 0.16182007 43.47171021 0.16619873 C44.62315521 0.17580627 45.77460022 0.18541382 46.9609375 0.1953125 C48.48957932 0.2055545 48.48957932 0.2055545 50.04910278 0.21600342 C52.35107422 0.35644531 52.35107422 0.35644531 53.35107422 1.35644531 C52.96464722 8.17806478 50.89053813 13.96782331 48.41357422 20.29394531 C48.05328125 21.25107422 47.69298828 22.20820312 47.32177734 23.19433594 C44.61190526 30.22602979 44.61190526 30.22602979 42.35107422 31.35644531 C40.53312882 31.44736681 38.71181477 31.47397998 36.89160156 31.4699707 C35.75056976 31.46989517 34.60953796 31.46981964 33.43392944 31.46974182 C32.19744659 31.46458054 30.96096375 31.45941925 29.68701172 31.45410156 C28.42466705 31.45268661 27.16232239 31.45127167 25.86172485 31.44981384 C22.50469123 31.44515609 19.14772521 31.43616939 15.79071045 31.42510986 C12.36552515 31.41488301 8.94033288 31.41031349 5.51513672 31.40527344 C-1.20623621 31.3942277 -7.92757709 31.37747725 -14.64892578 31.35644531 C-16.70639038 27.68264771 -16.70639038 27.68264771 -16.18920898 24.74682617 C-15.86267334 23.78139893 -15.5361377 22.81597168 -15.19970703 21.82128906 C-14.84585938 20.76490234 -14.49201172 19.70851563 -14.12744141 18.62011719 C-13.74265625 17.52248047 -13.35787109 16.42484375 -12.96142578 15.29394531 C-12.59597656 14.19244141 -12.23052734 13.0909375 -11.85400391 11.95605469 C-7.76180364 -0.02772319 -7.76180364 -0.02772319 0 0 Z " fill="#3CB25F" transform="translate(151.64892578125,25.6435546875)"/>
<path d="M0 0 C1.010625 -0.01224609 2.02125 -0.02449219 3.0625 -0.03710938 C4.031875 -0.03904297 5.00125 -0.04097656 6 -0.04296875 C6.886875 -0.04707764 7.77375 -0.05118652 8.6875 -0.05541992 C11 0.1875 11 0.1875 14 2.1875 C12.39236386 7.69243588 10.71115774 13.17116852 8.9375 18.625 C8.61652344 19.61371094 8.29554687 20.60242188 7.96484375 21.62109375 C7 24.1875 7 24.1875 5 27.1875 C2.29443359 27.52807617 2.29443359 27.52807617 -1.1015625 27.48046875 C-2.91914062 27.4659668 -2.91914062 27.4659668 -4.7734375 27.45117188 C-6.04445313 27.42603516 -7.31546875 27.40089844 -8.625 27.375 C-9.90375 27.36146484 -11.1825 27.34792969 -12.5 27.33398438 C-15.66708282 27.29853196 -18.83333541 27.24911441 -22 27.1875 C-23 25.1875 -23 25.1875 -22.39501953 22.97265625 C-22.06099121 22.07417969 -21.72696289 21.17570312 -21.3828125 20.25 C-21.02316406 19.27289063 -20.66351563 18.29578125 -20.29296875 17.2890625 C-19.90753906 16.26554687 -19.52210937 15.24203125 -19.125 14.1875 C-18.74730469 13.16398438 -18.36960937 12.14046875 -17.98046875 11.0859375 C-15.2027264 3.59295281 -15.2027264 3.59295281 -14 1.1875 C-9.40280508 -0.34489831 -4.81473965 0.00307062 0 0 Z " fill="#3CB25F" transform="translate(115,231.8125)"/>
<path d="M0 0 C0.94101563 0.00322266 1.88203125 0.00644531 2.8515625 0.00976562 C3.83640625 0.01814453 4.82125 0.02652344 5.8359375 0.03515625 C6.82851562 0.03966797 7.82109375 0.04417969 8.84375 0.04882812 C11.2995391 0.0606348 13.75520854 0.07710225 16.2109375 0.09765625 C15.8809375 1.41765625 15.5509375 2.73765625 15.2109375 4.09765625 C8.6109375 4.09765625 2.0109375 4.09765625 -4.7890625 4.09765625 C-3.7990625 5.58265625 -3.7990625 5.58265625 -2.7890625 7.09765625 C-2.09648021 9.08883033 -1.43158615 11.08976985 -0.7890625 13.09765625 C-0.4384375 13.84015625 -0.0878125 14.58265625 0.2734375 15.34765625 C1.20751465 18.0876159 1.50689333 20.39678378 1.76953125 23.26953125 C1.85388428 24.1728418 1.9382373 25.07615234 2.02514648 26.00683594 C2.08645752 26.69680664 2.14776855 27.38677734 2.2109375 28.09765625 C2.86746811 28.0887738 3.52399872 28.07989136 4.20042419 28.07073975 C11.06280774 27.9819207 17.92502672 27.92177874 24.7878418 27.87792969 C27.34552651 27.85787322 29.90316571 27.8306212 32.46069336 27.79589844 C36.14708725 27.74711953 39.83287234 27.7246268 43.51953125 27.70703125 C44.65426376 27.68638611 45.78899628 27.66574097 46.95811462 27.64447021 C54.53998662 27.64235009 60.97020838 28.57620497 66.95433044 33.54534912 C68.2109375 35.09765625 68.2109375 35.09765625 68.2109375 38.09765625 C68.8090625 38.15953125 69.4071875 38.22140625 70.0234375 38.28515625 C73.08009236 39.4204852 73.67727776 41.309184 75.2109375 44.09765625 C75.8709375 44.42765625 76.5309375 44.75765625 77.2109375 45.09765625 C77.2109375 46.08765625 77.2109375 47.07765625 77.2109375 48.09765625 C78.07332031 48.37609375 78.07332031 48.37609375 78.953125 48.66015625 C82.21587339 50.73747703 83.57695295 53.76695547 85.3359375 57.09765625 C87.83404554 61.9041686 87.83404554 61.9041686 91.2109375 66.09765625 C91.3359375 69.22265625 91.3359375 69.22265625 91.2109375 72.09765625 C91.8709375 72.09765625 92.5309375 72.09765625 93.2109375 72.09765625 C93.92604904 74.00462037 94.64049585 75.91183644 95.3515625 77.8203125 C95.89093611 79.24965256 96.44138808 80.67491235 97.0078125 82.09375 C100.09299072 89.91688048 101.39461729 97.53131845 101.96484375 105.91015625 C101.97786218 108.07245536 101.97786218 108.07245536 103.2109375 109.09765625 C103.3101293 110.7084937 103.3417357 112.32361269 103.34375 113.9375 C103.34503906 114.91783203 103.34632813 115.89816406 103.34765625 116.90820312 C103.34378906 117.94009766 103.33992188 118.97199219 103.3359375 120.03515625 C103.33980469 121.06318359 103.34367187 122.09121094 103.34765625 123.15039062 C103.34636719 124.13201172 103.34507812 125.11363281 103.34375 126.125 C103.34262207 127.02984131 103.34149414 127.93468262 103.34033203 128.86694336 C103.2109375 131.09765625 103.2109375 131.09765625 102.2109375 133.09765625 C102.03111793 134.44773019 101.89070383 135.80321729 101.7734375 137.16015625 C101.134466 143.28445228 100.15850178 149.19082845 97.6484375 154.84765625 C96.39919346 157.67203408 95.6705771 160.06403487 95.2109375 163.09765625 C94.5509375 163.09765625 93.8909375 163.09765625 93.2109375 163.09765625 C93.2109375 164.41765625 93.2109375 165.73765625 93.2109375 167.09765625 C91.8909375 167.42765625 90.5709375 167.75765625 89.2109375 168.09765625 C89.6234375 166.86015625 90.0359375 165.62265625 90.4609375 164.34765625 C90.73421875 163.51492187 91.0075 162.6821875 91.2890625 161.82421875 C91.89323344 160.03730638 92.52777047 158.26031198 93.1953125 156.49609375 C99.87944826 138.24326149 101.25170128 118.07621128 97.2109375 99.09765625 C97.06269531 98.17984375 96.91445313 97.26203125 96.76171875 96.31640625 C93.87184089 80.73975965 86.8522604 63.71047335 77.2109375 51.09765625 C76.53675781 50.17210937 75.86257813 49.2465625 75.16796875 48.29296875 C69.77371947 41.24702898 63.15901469 33.49397204 54.1630249 31.38215637 C50.89302524 31.14978356 47.70641603 31.14434418 44.4296875 31.23828125 C43.25378052 31.23689148 42.07787354 31.23550171 40.86633301 31.23406982 C37.14655823 31.23437905 33.4301835 31.28734154 29.7109375 31.34765625 C25.96370584 31.38658978 22.21728383 31.41396257 18.46984863 31.418396 C16.14702919 31.42324171 13.82413867 31.44910797 11.50183105 31.49810791 C10.45644165 31.50421082 9.41105225 31.51031372 8.33398438 31.51660156 C6.95478821 31.53947235 6.95478821 31.53947235 5.54772949 31.56280518 C3.2109375 31.09765625 3.2109375 31.09765625 1.45219421 29.20864868 C-0.76975148 25.42980867 -2.04943659 21.35208531 -3.4765625 17.22265625 C-3.79689453 16.33707031 -4.11722656 15.45148437 -4.44726562 14.5390625 C-6.06109068 9.9212518 -7.22333612 6.06312446 -6.7890625 1.09765625 C-4.33631109 -0.12871945 -2.7384844 -0.01649689 0 0 Z " fill="#58A571" transform="translate(220.7890625,25.90234375)"/>
<path d="M0 0 C10.11804608 -0.09260216 20.23599166 -0.16371516 30.35437489 -0.20724869 C35.05256408 -0.22814066 39.75046377 -0.25648746 44.44848633 -0.30175781 C48.98074381 -0.34515848 53.51272252 -0.36912497 58.04517174 -0.37950897 C59.77600177 -0.38691078 61.50681622 -0.40136458 63.23752785 -0.42292023 C65.65844547 -0.45187826 68.07820517 -0.45595932 70.49926758 -0.45410156 C71.57712524 -0.47567322 71.57712524 -0.47567322 72.67675781 -0.49768066 C75.92826979 -0.4706089 77.55413281 -0.44321068 79.91308594 1.90168762 C80.98343472 3.96802035 81.86426054 5.94645745 82.60546875 8.15234375 C82.86650391 8.92900391 83.12753906 9.70566406 83.39648438 10.50585938 C83.78803711 11.70952148 83.78803711 11.70952148 84.1875 12.9375 C84.46013672 13.73607422 84.73277344 14.53464844 85.01367188 15.35742188 C85.39942383 16.5243457 85.39942383 16.5243457 85.79296875 17.71484375 C86.14137817 18.76853149 86.14137817 18.76853149 86.49682617 19.84350586 C87 22 87 22 87 27 C54.99 27 22.98 27 -10 27 C-10 20.25 -10 20.25 -8.46875 16.4765625 C-7.99501953 15.28740234 -7.99501953 15.28740234 -7.51171875 14.07421875 C-7.17785156 13.26597656 -6.84398437 12.45773438 -6.5 11.625 C-6.16613281 10.79355469 -5.83226562 9.96210938 -5.48828125 9.10546875 C-4.66797096 7.06641174 -3.83840549 5.03166801 -3 3 C-1.98819594 6.52183861 -2.17689092 8.32259511 -3.375 11.8125 C-4.81252067 16.03773597 -5.3413672 19.38957042 -6 24 C23.37 24 52.74 24 83 24 C83 21.36 83 18.72 83 16 C82.01 15.67 81.02 15.34 80 15 C79.3046875 13.2578125 79.3046875 13.2578125 78.875 11.125 C78.35581708 8.656604 77.80167444 6.40502333 77 4 C51.59 3.67 26.18 3.34 0 3 C0 2.01 0 1.02 0 0 Z " fill="#54A16C" transform="translate(169,232)"/>
<path d="M0 0 C1.15774933 -0.0030011 2.31549866 -0.0060022 3.5083313 -0.00909424 C4.75838959 0.00325256 6.00844788 0.01559937 7.29638672 0.02832031 C8.57714081 0.03019348 9.8578949 0.03206665 11.17745972 0.03399658 C13.88601315 0.03859643 16.59426872 0.05301218 19.30273438 0.07519531 C22.78106493 0.10353409 26.25916147 0.11441271 29.73759651 0.11887741 C33.04889627 0.12402255 36.36011493 0.13856125 39.67138672 0.15332031 C40.92549347 0.15757019 42.17960022 0.16182007 43.47171021 0.16619873 C44.62315521 0.17580627 45.77460022 0.18541382 46.9609375 0.1953125 C48.48957932 0.2055545 48.48957932 0.2055545 50.04910278 0.21600342 C52.35107422 0.35644531 52.35107422 0.35644531 53.35107422 1.35644531 C52.96464722 8.17806478 50.89053813 13.96782331 48.41357422 20.29394531 C48.05328125 21.25107422 47.69298828 22.20820312 47.32177734 23.19433594 C44.61190526 30.22602979 44.61190526 30.22602979 42.35107422 31.35644531 C40.53312882 31.44736681 38.71181477 31.47397998 36.89160156 31.4699707 C35.75056976 31.46989517 34.60953796 31.46981964 33.43392944 31.46974182 C32.19744659 31.46458054 30.96096375 31.45941925 29.68701172 31.45410156 C28.42466705 31.45268661 27.16232239 31.45127167 25.86172485 31.44981384 C22.50469123 31.44515609 19.14772521 31.43616939 15.79071045 31.42510986 C12.36552515 31.41488301 8.94033288 31.41031349 5.51513672 31.40527344 C-1.20623621 31.3942277 -7.92757709 31.37747725 -14.64892578 31.35644531 C-16.70639038 27.68264771 -16.70639038 27.68264771 -16.18920898 24.74682617 C-15.86267334 23.78139893 -15.5361377 22.81597168 -15.19970703 21.82128906 C-14.84585938 20.76490234 -14.49201172 19.70851563 -14.12744141 18.62011719 C-13.74265625 17.52248047 -13.35787109 16.42484375 -12.96142578 15.29394531 C-12.59597656 14.19244141 -12.23052734 13.0909375 -11.85400391 11.95605469 C-7.76180364 -0.02772319 -7.76180364 -0.02772319 0 0 Z M-6.64892578 4.35644531 C-6.90936056 6.34226047 -7.16549355 8.3291004 -7.37158203 10.32128906 C-7.88614002 14.09713011 -8.96712545 16.67464498 -11.64892578 19.35644531 C-12.10898924 21.55895524 -12.10898924 21.55895524 -12.27392578 23.98144531 C-12.34869141 24.79871094 -12.42345703 25.61597656 -12.50048828 26.45800781 C-12.54947266 27.08449219 -12.59845703 27.71097656 -12.64892578 28.35644531 C-11.65892578 28.68644531 -10.66892578 29.01644531 -9.64892578 29.35644531 C-9.31892578 29.02644531 -8.98892578 28.69644531 -8.64892578 28.35644531 C-7.06286601 28.27875756 -5.47333422 28.27059579 -3.88549805 28.29052734 C-2.36370689 28.30516525 -2.36370689 28.30516525 -0.81117249 28.32009888 C0.84501854 28.34195755 0.84501854 28.34195755 2.53466797 28.36425781 C4.84651254 28.38177359 7.15836178 28.39868192 9.47021484 28.41503906 C13.13546452 28.44604836 16.80048511 28.48159557 20.46557617 28.52783203 C23.98863659 28.57001302 27.51142483 28.59356944 31.03466797 28.61425781 C32.13677109 28.63287872 33.23887421 28.65149963 34.37437439 28.67068481 C35.39205399 28.6741391 36.40973358 28.67759338 37.45825195 28.68115234 C38.80608009 28.6956694 38.80608009 28.6956694 40.18113708 28.71047974 C40.89721634 28.59364838 41.61329559 28.47681702 42.35107422 28.35644531 C44.42312472 25.24836956 44.98561215 23.15046986 45.78857422 19.54394531 C46.84162854 15.08458261 48.26034216 11.43835077 50.35107422 7.35644531 C50.40244481 5.69057052 50.40946906 4.02208868 50.35107422 2.35644531 C42.55487834 2.30586907 34.75872452 2.27076417 26.96240234 2.24658203 C24.30841491 2.23650442 21.65443862 2.22284218 19.00048828 2.20556641 C15.19284315 2.1813954 11.38534438 2.16997997 7.57763672 2.16113281 C6.38490143 2.15081024 5.19216614 2.14048767 3.96328735 2.12985229 C2.86229706 2.12970123 1.76130676 2.12955017 0.62695312 2.12939453 C-0.34567474 2.12495331 -1.31830261 2.12051208 -2.32040405 2.11593628 C-4.84195681 2.12899936 -4.84195681 2.12899936 -6.64892578 4.35644531 Z " fill="#57996C" transform="translate(151.64892578125,25.6435546875)"/>
<path d="M0 0 C0.68797668 -0.00671722 1.37595337 -0.01343445 2.08477783 -0.02035522 C4.36461561 -0.03939155 6.64415991 -0.04326213 8.92407227 -0.04541016 C10.50586571 -0.05183398 12.08765794 -0.05856202 13.66944885 -0.06558228 C16.98750565 -0.07756898 20.30545823 -0.08126166 23.62353516 -0.08007812 C27.87878423 -0.07987481 32.13336638 -0.10718332 36.3884573 -0.14162254 C39.65610331 -0.16384167 42.92358752 -0.16791722 46.19130135 -0.16685867 C47.76022708 -0.16922193 49.32915678 -0.17808609 50.89800835 -0.19352341 C53.09133712 -0.2130849 55.28321112 -0.20738605 57.4765625 -0.1953125 C58.72517563 -0.19816254 59.97378876 -0.20101257 61.26023865 -0.20394897 C64.30297852 0.29052734 64.30297852 0.29052734 66.17193604 2.19320679 C68.09441525 5.75810841 69.33277174 9.45771379 70.61547852 13.29052734 C71.04957031 14.50095703 71.04957031 14.50095703 71.49243164 15.73583984 C71.75604492 16.51701172 72.0196582 17.29818359 72.29125977 18.10302734 C72.53400635 18.81072266 72.77675293 19.51841797 73.02685547 20.24755859 C73.30297852 22.29052734 73.30297852 22.29052734 71.30297852 26.29052734 C64.04297852 26.29052734 56.78297852 26.29052734 49.30297852 26.29052734 C49.96426758 28.06041016 50.62555664 29.83029297 51.30688477 31.65380859 C52.16023209 33.97003705 53.01307038 36.28645309 53.86547852 38.60302734 C54.30311523 39.77027344 54.74075195 40.93751953 55.19165039 42.14013672 C55.60092773 43.25839844 56.01020508 44.37666016 56.43188477 45.52880859 C56.81417236 46.56046143 57.19645996 47.59211426 57.59033203 48.6550293 C58.30297852 51.29052734 58.30297852 51.29052734 57.30297852 54.29052734 C56.64297852 54.29052734 55.98297852 54.29052734 55.30297852 54.29052734 C52.30635938 47.6551564 51.21869961 40.46367594 50.30297852 33.29052734 C48.81797852 32.79552734 48.81797852 32.79552734 47.30297852 32.29052734 C47.20532227 26.13818359 47.20532227 26.13818359 47.30297852 24.29052734 C48.30297852 23.29052734 48.30297852 23.29052734 50.34423828 23.17700195 C51.21878662 23.18223877 52.09333496 23.18747559 52.99438477 23.19287109 C53.93862305 23.19609375 54.88286133 23.19931641 55.85571289 23.20263672 C56.84893555 23.21101563 57.8421582 23.21939453 58.86547852 23.22802734 C59.86256836 23.23253906 60.8596582 23.23705078 61.88696289 23.24169922 C64.359027 23.25352728 66.83097369 23.27000885 69.30297852 23.29052734 C67.80542465 18.65620524 66.0408041 14.22134338 64.10766602 9.75537109 C63.24561696 7.11482278 63.24386843 5.04775477 63.30297852 2.29052734 C55.60076335 2.39837406 47.89863194 2.51107508 40.19657803 2.6298666 C36.61968824 2.68488397 33.04279002 2.73826835 29.46582031 2.7878418 C26.00982627 2.83580004 22.55392344 2.888151 19.09803963 2.94346809 C17.14673833 2.97357845 15.19536961 2.99921283 13.2440033 3.02476501 C3.27856256 2.51139016 3.27856256 2.51139016 -5.50952148 5.91552734 C-7.02627176 8.94902789 -7.87613832 12.00699468 -8.69702148 15.29052734 C-9.35702148 15.29052734 -10.01702148 15.29052734 -10.69702148 15.29052734 C-11.02702148 17.27052734 -11.35702148 19.25052734 -11.69702148 21.29052734 C-12.35702148 21.29052734 -13.01702148 21.29052734 -13.69702148 21.29052734 C-13.69702148 22.28052734 -13.69702148 23.27052734 -13.69702148 24.29052734 C-13.03702148 24.62052734 -12.37702148 24.95052734 -11.69702148 25.29052734 C-12.68702148 25.29052734 -13.67702148 25.29052734 -14.69702148 25.29052734 C-14.15228374 14.758931 -12.25400519 0.07486638 0 0 Z " fill="#589E70" transform="translate(220.697021484375,170.70947265625)"/>
<path d="M0 0 C9.6506378 8.82429425 15.40787627 25.4837454 18 38 C18.16717529 38.73484619 18.33435059 39.46969238 18.5065918 40.22680664 C19.87788097 46.51193367 20.4548973 52.64026312 20.6875 59.0625 C20.72439941 60.07199707 20.76129883 61.08149414 20.79931641 62.12158203 C21.58459688 87.50426312 16.30337432 111.0760602 8 135 C7.67 135 7.34 135 7 135 C8.22831134 125.78766497 10.00857671 116.80955067 12.33984375 107.8125 C12.92923145 105.30149913 13.33697928 102.87268418 13.625 100.3125 C14 97 14 97 15 96 C16.97780825 86.55905593 17.344785 76.98779733 17.65820312 67.37817383 C17.68978516 66.46575928 17.72136719 65.55334473 17.75390625 64.61328125 C17.77783447 63.79641846 17.8017627 62.97955566 17.82641602 62.13793945 C18 60 18 60 19 57 C18.34 57 17.68 57 17 57 C15.98511927 53.95535782 15.79816054 51.56610145 15.625 48.375 C15.26359961 43.54855615 14.38760053 39.48764683 12.69140625 34.97265625 C12 33 12 33 11.4375 29.5625 C11.22702764 26.84168275 11.22702764 26.84168275 9 25 C9.0928125 23.6696875 9.0928125 23.6696875 9.1875 22.3125 C8.95785942 18.25551649 7.64801061 16.73347922 5.09375 13.7109375 C4 12 4 12 4 8 C3.34 8 2.68 8 2 8 C2 7.34 2 6.68 2 6 C1.34 5.67 0.68 5.34 0 5 C0 3.35 0 1.7 0 0 Z " fill="#53956A" transform="translate(329,71)"/>
<path d="M0 0 C0.99 0.33 1.98 0.66 3 1 C2.34 2.98 1.68 4.96 1 7 C0.34 7 -0.32 7 -1 7 C-1 8.32 -1 9.64 -1 11 C-1.66 11 -2.32 11 -3 11 C-3 11.99 -3 12.98 -3 14 C-3.66 14 -4.32 14 -5 14 C-5.103125 14.556875 -5.20625 15.11375 -5.3125 15.6875 C-6.14178408 18.4769101 -7.34299056 20.6139064 -9 23 C-9.66 23 -10.32 23 -11 23 C-11.268125 23.9075 -11.53625 24.815 -11.8125 25.75 C-12.90131632 28.72991834 -13.86391101 30.68590359 -16 33 C-16.66 33 -17.32 33 -18 33 C-19.4002792 38.46108889 -18.42705634 42.69276568 -17 48 C-16.34 48 -15.68 48 -15 48 C-14.51171875 49.98567708 -14.0234375 51.97135417 -13.53515625 53.95703125 C-13.08989295 55.65683202 -12.55566015 57.33301954 -12 59 C-10.02463255 58.65213292 -10.02463255 58.65213292 -8 58 C-7.67 57.34 -7.34 56.68 -7 56 C-6.030625 55.731875 -5.06125 55.46375 -4.0625 55.1875 C-2.5465625 54.5996875 -2.5465625 54.5996875 -1 54 C-0.29788106 52.34795544 0.36971413 50.68076231 1 49 C2.65816784 48.31246699 4.32459336 47.64438717 6 47 C6.36548445 45.67511887 6.6937566 44.33981486 7 43 C8.17422262 41.89287582 9.34901394 40.78634556 10.52734375 39.68359375 C14.90979814 34.6734138 17.80314365 28.49238117 19 22 C19.97753644 20.97803008 20.9805881 19.98020375 22 19 C23.04622875 17.02379014 24.05439935 15.0262871 25 13 C26.18082308 16.54246925 25.84269928 16.96117973 24.26171875 20.17578125 C23.85896729 20.99699463 23.45621582 21.81820801 23.04125977 22.66430664 C22.59451904 23.53821045 22.14777832 24.41211426 21.6875 25.3125 C21.23109131 26.21025146 20.77468262 27.10800293 20.30444336 28.03295898 C13.29468723 41.5071476 3.9633309 55.52291738 -9 64 C-11.5625 64.0625 -11.5625 64.0625 -14 63 C-16.65278967 58.37901154 -18.41672176 53.44377429 -20.1875 48.4375 C-20.46013672 47.69564453 -20.73277344 46.95378906 -21.01367188 46.18945312 C-23.67299672 38.70468671 -23.67299672 38.70468671 -23 35 C-21.453125 32.80859375 -21.453125 32.80859375 -19.25 30.4375 C-14.69962542 25.15646113 -11.1144416 19.55545908 -7.5625 13.5625 C-6.78277832 12.2475354 -6.78277832 12.2475354 -5.98730469 10.90600586 C-3.88037521 7.31666632 -1.82783035 3.74083601 0 0 Z " fill="#57A16D" transform="translate(309,195)"/>
<path d="M0 0 C1.86978516 0.02803711 1.86978516 0.02803711 3.77734375 0.05664062 C25.04545876 0.69001709 41.96554896 11.47222639 56.56640625 26.359375 C60.32256111 30.57916972 63.55743749 35.15849198 66.75 39.8125 C65.76 40.3075 65.76 40.3075 64.75 40.8125 C60.75 36.8125 60.75 36.8125 59.1875 35.0625 C57.69019204 33.48441064 57.69019204 33.48441064 54.75 33.8125 C54.688125 33.07 54.62625 32.3275 54.5625 31.5625 C53.97708267 28.61219566 53.97708267 28.61219566 51.3125 26.875 C48.75 24.8125 48.75 24.8125 47.75 21.6875 C47.05896352 18.63503264 47.05896352 18.63503264 44.4375 17.625 C43.550625 17.356875 42.66375 17.08875 41.75 16.8125 C39.18296361 15.33645408 36.68806041 13.77322124 34.1875 12.1875 C31.98088972 10.94274548 30.22195376 10.27026922 27.75 9.8125 C27.75 9.1525 27.75 8.4925 27.75 7.8125 C26.43 7.8125 25.11 7.8125 23.75 7.8125 C23.75 7.1525 23.75 6.4925 23.75 5.8125 C21.77 5.8125 19.79 5.8125 17.75 5.8125 C17.75 5.1525 17.75 4.4925 17.75 3.8125 C4.22 3.8125 -9.31 3.8125 -23.25 3.8125 C-22.92 2.8225 -22.59 1.8325 -22.25 0.8125 C-14.80973727 -0.41196535 -7.52074492 -0.22662102 0 0 Z " fill="#51A16C" transform="translate(260.25,26.1875)"/>
<path d="M0 0 C1.010625 -0.01224609 2.02125 -0.02449219 3.0625 -0.03710938 C4.031875 -0.03904297 5.00125 -0.04097656 6 -0.04296875 C6.886875 -0.04707764 7.77375 -0.05118652 8.6875 -0.05541992 C11 0.1875 11 0.1875 14 2.1875 C10.92482916 12.74558656 10.92482916 12.74558656 9 17.1875 C8.34 16.8575 7.68 16.5275 7 16.1875 C6.73719778 11.85126337 7.72955011 8.31646214 9 4.1875 C9 3.8575 9 3.5275 9 3.1875 C6.43685501 3.10617813 3.87631582 3.04685825 1.3125 3 C0.59126953 2.97486328 -0.12996094 2.94972656 -0.87304688 2.92382812 C-5.45529373 2.86105762 -8.45723739 3.19380023 -12 6.1875 C-13.37091158 8.43674343 -13.37091158 8.43674343 -14.1875 11 C-14.5071875 11.88300781 -14.826875 12.76601562 -15.15625 13.67578125 C-15.4346875 14.50464844 -15.713125 15.33351562 -16 16.1875 C-16.391875 17.3425 -16.78375 18.4975 -17.1875 19.6875 C-17.5896875 20.925 -17.5896875 20.925 -18 22.1875 C-18.33 22.8475 -18.66 23.5075 -19 24.1875 C-11.08 24.1875 -3.16 24.1875 5 24.1875 C5 22.5375 5 20.8875 5 19.1875 C5.99 18.8575 6.98 18.5275 8 18.1875 C6.125 24.9375 6.125 24.9375 5 27.1875 C-3.91 27.1875 -12.82 27.1875 -22 27.1875 C-23 25.1875 -23 25.1875 -22.39501953 22.97265625 C-22.06099121 22.07417969 -21.72696289 21.17570312 -21.3828125 20.25 C-21.02316406 19.27289063 -20.66351563 18.29578125 -20.29296875 17.2890625 C-19.90753906 16.26554687 -19.52210937 15.24203125 -19.125 14.1875 C-18.74730469 13.16398438 -18.36960937 12.14046875 -17.98046875 11.0859375 C-15.2027264 3.59295281 -15.2027264 3.59295281 -14 1.1875 C-9.40280508 -0.34489831 -4.81473965 0.00307062 0 0 Z " fill="#50A56A" transform="translate(115,231.8125)"/>
<path d="M0 0 C0.66 0 1.32 0 2 0 C1.49396008 2.16874252 1.00016187 3.99967627 0 6 C0 7.32 0 8.64 0 10 C-0.66 10 -1.32 10 -2 10 C-1.95875 10.721875 -1.9175 11.44375 -1.875 12.1875 C-2.00921305 15.20729369 -2.75170619 17.26935729 -4 20 C-4.66 20 -5.32 20 -6 20 C-5.938125 21.175625 -5.938125 21.175625 -5.875 22.375 C-6 25 -6 25 -8 27 C-8 27.99 -8 28.98 -8 30 C-8.66 30 -9.32 30 -10 30 C-10.1546875 31.423125 -10.1546875 31.423125 -10.3125 32.875 C-10.9910919 37.73491554 -12.5085476 42.33803874 -14 47 C-14.66 47 -15.32 47 -16 47 C-16 48.65 -16 50.3 -16 52 C-7.09 52 1.82 52 11 52 C13.16169042 44.72760688 13.16169042 44.72760688 13 40 C13.66 40 14.32 40 15 40 C15 38.35 15 36.7 15 35 C15.99 35.33 16.98 35.66 18 36 C17.50473123 42.10831482 14.99076031 47.70998466 12 53 C8.45986775 55.36008817 6.98878045 55.23463644 2.80078125 55.1953125 C1.59228516 55.18886719 0.38378906 55.18242187 -0.86132812 55.17578125 C-2.12396484 55.15902344 -3.38660156 55.14226562 -4.6875 55.125 C-5.96173828 55.11597656 -7.23597656 55.10695312 -8.54882812 55.09765625 C-11.69940627 55.07405641 -14.84960983 55.04113194 -18 55 C-18.89734203 51.48263371 -19.09386707 49.28798741 -17.84765625 45.875 C-17.56962158 45.09616455 -17.29158691 44.3173291 -17.00512695 43.51489258 C-16.69406006 42.68497803 -16.38299316 41.85506348 -16.0625 41 C-15.58913208 39.69615356 -15.58913208 39.69615356 -15.10620117 38.3659668 C-14.08559063 35.57159863 -13.04492878 32.78535832 -12 30 C-11.65130859 29.06236816 -11.30261719 28.12473633 -10.94335938 27.15869141 C-7.52960207 17.99253137 -4.06204804 8.90170726 0 0 Z " fill="#55A570" transform="translate(177,114)"/>
<path d="M0 0 C0.44527189 6.45644234 -0.3365698 8.5314013 -4 14 C-5.0898683 16.57393008 -5.9273542 19.20528155 -6.75 21.875 C-6.97042969 22.56335938 -7.19085938 23.25171875 -7.41796875 23.9609375 C-7.95368824 25.63797243 -8.47804778 27.31862931 -9 29 C-9.33 29 -9.66 29 -10 29 C-10.12375 30.0725 -10.2475 31.145 -10.375 32.25 C-10.89643936 35.37863615 -11.40088254 37.33480424 -13 40 C-13.66 40 -14.32 40 -15 40 C-14.938125 40.86625 -14.87625 41.7325 -14.8125 42.625 C-15.0280747 46.50534463 -15.97849167 48.70569012 -18 52 C-18.99 52.66 -19.98 53.32 -21 54 C-19.59973225 46.80500721 -17.38016145 40.20807548 -14.75 33.375 C-14.35176025 32.32554199 -13.95352051 31.27608398 -13.54321289 30.19482422 C-10.79000792 22.96800804 -7.94661496 15.78122974 -4.99609375 8.6328125 C-3.8820469 6.15739095 -3.8820469 6.15739095 -4 4 C-10.6 4 -17.2 4 -24 4 C-24 3.01 -24 2.02 -24 1 C-20.75008318 0.83168475 -17.50005436 0.66563638 -14.25 0.5 C-13.32960937 0.45230469 -12.40921875 0.40460938 -11.4609375 0.35546875 C-10.12675781 0.28779297 -10.12675781 0.28779297 -8.765625 0.21875 C-7.94868164 0.17685547 -7.13173828 0.13496094 -6.29003906 0.09179688 C-4.19481876 0.00780937 -2.09690296 0 0 0 Z " fill="#58A46E" transform="translate(149,193)"/>
<path d="M0 0 C0.94101563 0.00322266 1.88203125 0.00644531 2.8515625 0.00976562 C3.83640625 0.01814453 4.82125 0.02652344 5.8359375 0.03515625 C6.82851562 0.03966797 7.82109375 0.04417969 8.84375 0.04882812 C11.2995391 0.0606348 13.75520854 0.07710225 16.2109375 0.09765625 C15.8809375 1.41765625 15.5509375 2.73765625 15.2109375 4.09765625 C8.6109375 4.09765625 2.0109375 4.09765625 -4.7890625 4.09765625 C-3.7990625 5.58265625 -3.7990625 5.58265625 -2.7890625 7.09765625 C-2.09648021 9.08883033 -1.43158615 11.08976985 -0.7890625 13.09765625 C-0.4590625 13.84015625 -0.1290625 14.58265625 0.2109375 15.34765625 C1.7165492 19.48808842 2.42130994 23.77150525 3.2109375 28.09765625 C8.89570011 29.28092906 14.51552008 29.31924076 20.296875 29.4140625 C21.35379547 29.4348436 22.41071594 29.45562469 23.49966431 29.47703552 C26.86169195 29.54219616 30.22379487 29.60125986 33.5859375 29.66015625 C35.8711014 29.70337333 38.15625781 29.74698863 40.44140625 29.79101562 C46.03117141 29.89784308 51.62101074 29.9996705 57.2109375 30.09765625 C57.2109375 30.42765625 57.2109375 30.75765625 57.2109375 31.09765625 C49.57555439 31.19890347 41.94034373 31.26905739 34.30444336 31.31738281 C31.70574474 31.33752399 29.10709157 31.36483853 26.50854492 31.39941406 C22.77771808 31.44782013 19.0474893 31.47060026 15.31640625 31.48828125 C14.15070602 31.50892639 12.9850058 31.52957153 11.78398132 31.55084229 C10.70308731 31.55114441 9.6221933 31.55144653 8.50854492 31.55175781 C7.55590256 31.56064026 6.60326019 31.56952271 5.62174988 31.57867432 C3.2109375 31.09765625 3.2109375 31.09765625 1.44128418 29.20645142 C-0.76611799 25.42299827 -2.05036707 21.34939291 -3.4765625 17.22265625 C-3.79689453 16.33707031 -4.11722656 15.45148437 -4.44726562 14.5390625 C-6.06109068 9.9212518 -7.22333612 6.06312446 -6.7890625 1.09765625 C-4.33631109 -0.12871945 -2.7384844 -0.01649689 0 0 Z " fill="#579C6E" transform="translate(220.7890625,25.90234375)"/>
<path d="M0 0 C3.56832347 1.78416174 4.03889283 6.19319593 5.25 9.8125 C5.69085938 11.04323242 5.69085938 11.04323242 6.140625 12.29882812 C6.40875 13.09353516 6.676875 13.88824219 6.953125 14.70703125 C7.20223633 15.4338208 7.45134766 16.16061035 7.70800781 16.90942383 C8 19 8 19 6 23 C-1.26 23 -8.52 23 -16 23 C-15.33871094 24.76988281 -14.67742187 26.53976563 -13.99609375 28.36328125 C-13.14274642 30.6795097 -12.28990813 32.99592574 -11.4375 35.3125 C-10.99986328 36.47974609 -10.56222656 37.64699219 -10.11132812 38.84960938 C-9.70205078 39.96787109 -9.29277344 41.08613281 -8.87109375 42.23828125 C-8.48880615 43.26993408 -8.10651855 44.30158691 -7.71264648 45.36450195 C-7 48 -7 48 -8 51 C-8.66 51 -9.32 51 -10 51 C-12.99661914 44.36462906 -14.0842789 37.1731486 -15 30 C-15.99 29.67 -16.98 29.34 -18 29 C-18.09765625 22.84765625 -18.09765625 22.84765625 -18 21 C-17 20 -17 20 -14.95874023 19.88647461 C-14.08419189 19.89171143 -13.20964355 19.89694824 -12.30859375 19.90234375 C-11.36435547 19.90556641 -10.42011719 19.90878906 -9.44726562 19.91210938 C-7.95743164 19.92467773 -7.95743164 19.92467773 -6.4375 19.9375 C-5.44041016 19.94201172 -4.44332031 19.94652344 -3.41601562 19.95117188 C-0.94395151 19.96299993 1.52799518 19.97948151 4 20 C2.48195101 15.29473504 0.67651283 10.8000348 -1.29296875 6.26953125 C-2 4 -2 4 -1 1 C-0.67 0.67 -0.34 0.34 0 0 Z " fill="#569E6B" transform="translate(286,174)"/>
<path d="M0 0 C1.61136214 2.41704321 2.5036557 4.09162259 3.4453125 6.75170898 C3.71352814 7.50292526 3.98174377 8.25414154 4.25808716 9.02812195 C4.68720901 10.24976799 4.68720901 10.24976799 5.125 11.49609375 C5.58010452 12.77568718 5.58010452 12.77568718 6.04440308 14.08113098 C7.03358951 16.86519107 8.01694343 19.65127015 9 22.4375 C9.67689552 24.34810601 10.35414308 26.25858733 11.03173828 28.16894531 C12.05149887 31.04424729 13.07091345 33.91966698 14.08865356 36.79568481 C16.09812051 42.47174511 18.12675444 48.14030585 20.1796875 53.80078125 C20.64590271 55.08990004 21.11205125 56.37904295 21.578125 57.66821289 C22.42079815 59.9955581 23.26695809 62.32164484 24.1171875 64.64624023 C24.4884375 65.67563721 24.8596875 66.70503418 25.2421875 67.765625 C25.5604248 68.63993164 25.87866211 69.51423828 26.20654297 70.41503906 C27.07920166 73.25802683 27.57088075 76.0600766 28 79 C27.34 79 26.68 79 26 79 C26 77.35 26 75.7 26 74 C25.01 74 24.02 74 23 74 C22.83723958 72.01432292 22.67447917 70.02864583 22.51171875 68.04296875 C22.1691789 65.91276671 22.1691789 65.91276671 20.52734375 64.57421875 C18.42227031 62.40453948 18.32097369 60.58464358 17.875 57.625 C17.72804687 56.68914062 17.58109375 55.75328125 17.4296875 54.7890625 C17.21699219 53.40847656 17.21699219 53.40847656 17 52 C16.67546162 50.33159845 16.34496366 48.66429834 16 47 C15.01 47 14.02 47 13 47 C12.7525 46.236875 12.505 45.47375 12.25 44.6875 C11.57131834 42.6853891 10.8790101 40.68681819 10.1171875 38.71484375 C7.68510334 32.36652959 5.90405652 26.01298339 4.39501953 19.39501953 C3.62140939 16.08870882 2.90815667 13.86223501 1 11 C1 9.68 1 8.36 1 7 C0.34 7 -0.32 7 -1 7 C-0.67 4.69 -0.34 2.38 0 0 Z " fill="#509F69" transform="translate(224,70)"/>
<path d="M0 0 C0.75957001 0.00719055 1.51914001 0.0143811 2.30172729 0.02178955 C3.10181213 0.0214975 3.90189697 0.02120544 4.72622681 0.02090454 C7.3776423 0.02230077 10.02877871 0.03787564 12.68014526 0.05352783 C14.51574551 0.05725692 16.35134774 0.06010438 18.18695068 0.06210327 C23.02360508 0.06974793 27.86013979 0.08940353 32.69674683 0.11151123 C37.62999858 0.13195176 42.56326964 0.14110115 47.49655151 0.15118408 C57.18019791 0.17264866 66.8637554 0.20679461 76.54733276 0.24884033 C76.54733276 0.57884033 76.54733276 0.90884033 76.54733276 1.24884033 C49.55507699 2.52305103 22.56249244 2.35366081 -4.45266724 2.24884033 C-5.11266724 4.55884033 -5.77266724 6.86884033 -6.45266724 9.24884033 C-7.11266724 9.24884033 -7.77266724 9.24884033 -8.45266724 9.24884033 C-8.39079224 10.07384033 -8.32891724 10.89884033 -8.26516724 11.74884033 C-8.49991386 16.13077729 -9.77885378 19.20379115 -11.45266724 23.24884033 C-10.79266724 23.90884033 -10.13266724 24.56884033 -9.45266724 25.24884033 C-11.10266724 24.91884033 -12.75266724 24.58884033 -14.45266724 24.24884033 C-9.93905164 0.03944756 -9.93905164 0.03944756 0 0 Z " fill="#5C9F73" transform="translate(132.45266723632813,170.75115966796875)"/>
<path d="M0 0 C-1.68700483 5.7337952 -3.3946853 11.44308515 -5.4375 17.0625 C-5.82808594 18.16722656 -6.21867187 19.27195313 -6.62109375 20.41015625 C-8 23 -8 23 -10.16015625 23.87109375 C-10.76730469 23.91363281 -11.37445313 23.95617187 -12 24 C-12 23.34 -12 22.68 -12 22 C-11.54625 21.566875 -11.0925 21.13375 -10.625 20.6875 C-6.26264659 16.15736377 -6.4388377 9.9474057 -6 4 C-6.66 4 -7.32 4 -8 4 C-8 3.34 -8 2.68 -8 2 C-8.97582031 2.16757813 -9.95164062 2.33515625 -10.95703125 2.5078125 C-12.22933594 2.71148437 -13.50164062 2.91515625 -14.8125 3.125 C-16.07707031 3.33382812 -17.34164062 3.54265625 -18.64453125 3.7578125 C-22 4 -22 4 -25 2 C-27.4200488 1.83201641 -27.4200488 1.83201641 -30.14453125 2.05859375 C-31.20051514 2.11539307 -32.25649902 2.17219238 -33.34448242 2.23071289 C-34.48892822 2.29895264 -35.63337402 2.36719238 -36.8125 2.4375 C-47.48302167 2.96836083 -58.01818554 2.97714693 -68.6875 2.5625 C-69.35746002 2.53662811 -70.02742004 2.51075623 -70.71768188 2.48410034 C-74.47908244 2.3359508 -78.23971614 2.17409818 -82 2 C-82 1.67 -82 1.34 -82 1 C-26.94107781 -0.20994726 -26.94107781 -0.20994726 0 0 Z " fill="#47AB68" transform="translate(210,172)"/>
<path d="M0 0 C1.32 0.33 2.64 0.66 4 1 C4.02895225 4.29164829 4.0467823 7.58326399 4.0625 10.875 C4.07087891 11.81214844 4.07925781 12.74929687 4.08789062 13.71484375 C4.09111328 14.61074219 4.09433594 15.50664062 4.09765625 16.4296875 C4.10289307 17.25710449 4.10812988 18.08452148 4.11352539 18.93701172 C4 21 4 21 3 23 C2.82018043 24.35007394 2.67976633 25.70556104 2.5625 27.0625 C1.9235285 33.18679603 0.94756428 39.0931722 -1.5625 44.75 C-2.81174404 47.57437783 -3.5403604 49.96637862 -4 53 C-4.66 53 -5.32 53 -6 53 C-6 54.32 -6 55.64 -6 57 C-7.98 57.495 -7.98 57.495 -10 58 C-9.5875 56.7625 -9.175 55.525 -8.75 54.25 C-8.34007812 53.00089844 -8.34007812 53.00089844 -7.921875 51.7265625 C-7.31770406 49.93965013 -6.68316703 48.16265573 -6.015625 46.3984375 C-0.50322823 31.34535402 0.51253005 15.88843143 0 0 Z " fill="#60A678" transform="translate(320,136)"/>
<path d="M0 0 C0.7427417 0.04705078 1.4854834 0.09410156 2.25073242 0.14257812 C4.52570192 2.82379218 5.20641692 4.70828617 5.56323242 8.20507812 C6.42938155 13.16575041 8.59175953 16.83041599 11.07104492 21.17773438 C12.45501639 24.6559938 12.1751357 26.56715625 11.25073242 30.14257812 C8.96541606 26.71460359 7.65706515 23.16964496 6.25073242 19.33007812 C5.86014648 18.28110352 5.86014648 18.28110352 5.46166992 17.2109375 C3.97862272 13.20745906 2.60214761 9.19682368 1.25073242 5.14257812 C-12.60926758 4.64757812 -12.60926758 4.64757812 -26.74926758 4.14257812 C-26.74926758 3.15257812 -26.74926758 2.16257813 -26.74926758 1.14257812 C-22.85350665 0.97419025 -18.95764829 0.80816984 -15.06176758 0.64257812 C-13.95897461 0.59488281 -12.85618164 0.5471875 -11.7199707 0.49804688 C-10.65327148 0.45292969 -9.58657227 0.4078125 -8.48754883 0.36132812 C-7.01862183 0.29848633 -7.01862183 0.29848633 -5.52001953 0.234375 C-3.67936512 0.17339288 -1.83919273 0.09538128 0 0 Z " fill="#559D6A" transform="translate(236.749267578125,192.857421875)"/>
<path d="M0 0 C0.66 0 1.32 0 2 0 C-0.30892632 8.34001157 -3.3277482 16.36875836 -6.4375 24.4375 C-7.39594915 26.93565758 -8.35229081 29.43461281 -9.30859375 31.93359375 C-9.7660498 33.12452637 -10.22350586 34.31545898 -10.69482422 35.54248047 C-12.242044 39.64119475 -13.70087612 43.76751987 -15.12524414 47.91040039 C-16 50 -16 50 -18 52 C-20.98095703 52.22705078 -20.98095703 52.22705078 -24.7578125 52.1953125 C-25.42086395 52.1924826 -26.08391541 52.18965271 -26.76705933 52.18673706 C-28.88655583 52.17553435 -31.00563104 52.15043051 -33.125 52.125 C-34.56119182 52.11497028 -35.99739025 52.10584441 -37.43359375 52.09765625 C-40.95586628 52.075595 -44.47789203 52.04106494 -48 52 C-47.375 44.5 -47.375 44.5 -44 40 C-44.33 43.63 -44.66 47.26 -45 51 C-40.91294205 51.02097464 -36.83610596 50.99356622 -32.75 50.9375 C-31.59113281 50.94845703 -30.43226563 50.95941406 -29.23828125 50.97070312 C-23.42611877 51.07469794 -23.42611877 51.07469794 -18.4050293 48.65625 C-17.28869004 46.79629964 -16.62811361 45.07457957 -16 43 C-15.63720947 42.02776489 -15.63720947 42.02776489 -15.26708984 41.03588867 C-14.55439413 39.08022636 -13.92388281 37.11445145 -13.3125 35.125 C-11.11039638 28.11039638 -11.11039638 28.11039638 -10 27 C-9.855625 25.865625 -9.71125 24.73125 -9.5625 23.5625 C-9 20 -9 20 -7 18 C-6.87625 16.906875 -6.7525 15.81375 -6.625 14.6875 C-5.91973894 10.52645972 -4.67184515 9.15763517 -2 6 C-0.74443113 2.82078213 -0.74443113 2.82078213 0 0 Z " fill="#548B62" transform="translate(172,207)"/>
<path d="M0 0 C1.32 0.33 2.64 0.66 4 1 C4.50266794 3.12437048 5.0020561 5.24951726 5.5 7.375 C5.91765625 9.15003906 5.91765625 9.15003906 6.34375 10.9609375 C7 14 7 14 7 16 C7.66 16 8.32 16 9 16 C9.18175781 16.83144531 9.36351562 17.66289062 9.55078125 18.51953125 C9.80214844 19.60621094 10.05351562 20.69289062 10.3125 21.8125 C10.67794922 23.43091797 10.67794922 23.43091797 11.05078125 25.08203125 C12.03440952 28.10577741 12.52391004 29.11566282 15 31 C17.50873159 31.5040817 17.50873159 31.5040817 20.32421875 31.51171875 C21.86625977 31.56489258 21.86625977 31.56489258 23.43945312 31.61914062 C25.04723633 31.65297852 25.04723633 31.65297852 26.6875 31.6875 C27.77095703 31.72166016 28.85441406 31.75582031 29.97070312 31.79101562 C32.6470322 31.8735456 35.32303159 31.94267937 38 32 C37.855625 31.26394531 37.71125 30.52789062 37.5625 29.76953125 C37.2840625 28.30580078 37.2840625 28.30580078 37 26.8125 C36.814375 25.84957031 36.62875 24.88664062 36.4375 23.89453125 C36.03122388 21.2065794 35.92066428 18.71228981 36 16 C37.76647063 18.64970595 38.97014997 21.01498099 40.1875 23.9375 C40.55230469 24.79214844 40.91710937 25.64679688 41.29296875 26.52734375 C42.0682937 29.23883931 41.77763097 30.36289256 41 33 C36.92512506 33.12366555 32.85097699 33.21436476 28.7746582 33.2746582 C27.38839696 33.29979219 26.00226813 33.33390592 24.61645508 33.37719727 C22.62378963 33.43788396 20.63015467 33.46354879 18.63671875 33.48828125 C17.43748779 33.51446533 16.23825684 33.54064941 15.00268555 33.56762695 C12 33 12 33 10.17895508 30.71704102 C8.26663109 26.30986486 8.26663109 26.30986486 7.5 24.0390625 C7.2525 23.31976563 7.005 22.60046875 6.75 21.859375 C6.5025 21.12203125 6.255 20.3846875 6 19.625 C4.57160295 15.41420453 3.15323667 11.26185447 1.3125 7.2109375 C0 4 0 4 0 0 Z " fill="#529166" transform="translate(249,226)"/>
<path d="M0 0 C1.32 0 2.64 0 4 0 C4.625 2.375 4.625 2.375 5 5 C4.34 5.66 3.68 6.32 3 7 C3 6.34 3 5.68 3 5 C2.34 5 1.68 5 1 5 C1 6.98 1 8.96 1 11 C0.34 11 -0.32 11 -1 11 C-1.144375 11.721875 -1.28875 12.44375 -1.4375 13.1875 C-1.95833333 15.79166667 -2.47916667 18.39583333 -3 21 C-3.66 21 -4.32 21 -5 21 C-5 21.99 -5 22.98 -5 24 C-4.34 24.33 -3.68 24.66 -3 25 C-3.639375 25.226875 -4.27875 25.45375 -4.9375 25.6875 C-5.618125 26.120625 -6.29875 26.55375 -7 27 C-7.33847047 28.665631 -7.67068154 30.33253539 -8 32 C-8.91873516 34.11068019 -9.90195769 36.1941067 -10.9375 38.25 C-11.46214844 39.30703125 -11.98679688 40.3640625 -12.52734375 41.453125 C-14 44 -14 44 -16 45 C-13.73463716 36.69607062 -10.64519607 28.79169666 -7.4375 20.8125 C-6.4529853 18.36224468 -5.47339105 15.91019293 -4.49609375 13.45703125 C-4.06482178 12.38428955 -3.6335498 11.31154785 -3.18920898 10.20629883 C-1.93710895 6.83043562 -0.94640388 3.47215517 0 0 Z " fill="#56A06B" transform="translate(207,31)"/>
<path d="M0 0 C2.09749995 2.35968744 2.96905704 3.54616994 3.1875 6.75 C3.125625 7.4925 3.06375 8.235 3 9 C3.66 9.33 4.32 9.66 5 10 C5 11.98 5 13.96 5 16 C13.58 16 22.16 16 31 16 C31.66 14.35 32.32 12.7 33 11 C32.34 11 31.68 11 31 11 C31.33 10.01 31.66 9.02 32 8 C34.76223278 10.76223278 34.57856291 13.20706617 35 17 C30.13759896 20.24160069 24.77875536 19.40979602 19.0625 19.4375 C17.27295898 19.48680664 17.27295898 19.48680664 15.44726562 19.53710938 C13.72733398 19.54774414 13.72733398 19.54774414 11.97265625 19.55859375 C10.92343994 19.57204834 9.87422363 19.58550293 8.79321289 19.59936523 C6 19 6 19 3.70581055 16.67333984 C1.73193251 13.57988565 0.747481 10.71430781 -0.25 7.1875 C-0.58515625 6.02605469 -0.9203125 4.86460937 -1.265625 3.66796875 C-1.50796875 2.78753906 -1.7503125 1.90710938 -2 1 C-1.34 0.67 -0.68 0.34 0 0 Z " fill="#5A9F70" transform="translate(223,150)"/>
<path d="M0 0 C0.33 0 0.66 0 1 0 C1.98809645 6.77805729 1.96541231 12.56629022 0.5 19.25 C0.3256543 20.08756836 0.15130859 20.92513672 -0.02832031 21.78808594 C-2.28308325 32.06904703 -5.61329342 42.04548135 -9 52 C-9.33 52 -9.66 52 -10 52 C-8.77168866 42.78766497 -6.99142329 33.80955067 -4.66015625 24.8125 C-4.07076855 22.30149913 -3.66302072 19.87268418 -3.375 17.3125 C-3 14 -3 14 -2 13 C-1.60333773 10.81980521 -1.25684763 8.6303537 -0.9375 6.4375 C-0.76089844 5.23996094 -0.58429688 4.04242188 -0.40234375 2.80859375 C-0.26957031 1.88175781 -0.13679688 0.95492187 0 0 Z " fill="#5A9C70" transform="translate(346,154)"/>
<path d="M0 0 C1.0326802 2.78823655 1.04509293 3.8677274 0.0625 6.75 C-0.288125 7.4925 -0.63875 8.235 -1 9 C-0.44592468 8.83544815 0.10815063 8.6708963 0.67901611 8.50135803 C3.25316326 7.94531395 5.50322198 7.91962623 8.13574219 7.97827148 C9.15649841 7.99836777 10.17725464 8.01846405 11.22894287 8.03916931 C12.32386047 8.06620438 13.41877808 8.09323944 14.546875 8.12109375 C15.6732135 8.14470474 16.799552 8.16831573 17.96002197 8.19264221 C21.55681193 8.26920316 25.15338248 8.35326053 28.75 8.4375 C31.18879135 8.49072823 33.62759341 8.54346858 36.06640625 8.59570312 C42.04440652 8.72480813 48.02224389 8.86006803 54 9 C54.33 8.01 54.66 7.02 55 6 C55.495 6.99 55.495 6.99 56 8 C55.67 8.66 55.34 9.32 55 10 C36.03580747 11.4709069 17.00569306 11.09464261 -2 11 C-3.33978732 6.29148227 -2.0959099 4.35949259 0 0 Z " fill="#5AB178" transform="translate(140,45)"/>
<path d="M0 0 C1.65148544 0.0001133 1.65148544 0.0001133 3.33633423 0.00022888 C4.52906952 0.00539017 5.72180481 0.01055145 6.95068359 0.01586914 C8.16863617 0.01728409 9.38658875 0.01869904 10.64144897 0.02015686 C14.54403099 0.025769 18.44655632 0.0383236 22.34912109 0.05102539 C24.98974527 0.05603882 27.63037034 0.060602 30.27099609 0.06469727 C36.75539054 0.07574238 43.23975177 0.09249237 49.72412109 0.11352539 C49.39412109 0.77352539 49.06412109 1.43352539 48.72412109 2.11352539 C41.64012747 2.28150914 34.55598539 2.44144418 27.47167969 2.59570312 C25.06017919 2.64917284 22.64871928 2.70450593 20.23730469 2.76171875 C16.77727004 2.84349104 13.31714622 2.91862758 9.85693359 2.99243164 C8.231884 3.03298424 8.231884 3.03298424 6.57400513 3.07435608 C5.07267532 3.1045005 5.07267532 3.1045005 3.54101562 3.13525391 C2.65721222 3.15523941 1.77340881 3.17522491 0.86282349 3.19581604 C-1.27587891 3.11352539 -1.27587891 3.11352539 -3.27587891 2.11352539 C-4.60448816 1.76183471 -5.93746218 1.42582263 -7.27587891 1.11352539 C-4.70454432 -0.1721419 -2.8787079 -0.00657239 0 0 Z " fill="#4CB46B" transform="translate(152.27587890625,27.886474609375)"/>
<path d="M0 0 C1.010625 -0.01224609 2.02125 -0.02449219 3.0625 -0.03710938 C4.031875 -0.03904297 5.00125 -0.04097656 6 -0.04296875 C6.886875 -0.04707764 7.77375 -0.05118652 8.6875 -0.05541992 C11 0.1875 11 0.1875 14 2.1875 C10.92482916 12.74558656 10.92482916 12.74558656 9 17.1875 C8.34 16.8575 7.68 16.5275 7 16.1875 C6.73719778 11.85126337 7.72955011 8.31646214 9 4.1875 C9 3.8575 9 3.5275 9 3.1875 C6.43721301 3.13329299 3.87558517 3.09372993 1.3125 3.0625 C0.59126953 3.04574219 -0.12996094 3.02898437 -0.87304688 3.01171875 C-5.04876781 2.97358431 -8.2494138 3.3085081 -12 5.1875 C-12 4.5275 -12 3.8675 -12 3.1875 C-12.66 3.1875 -13.32 3.1875 -14 3.1875 C-14 2.5275 -14 1.8675 -14 1.1875 C-9.40280508 -0.34489831 -4.81473965 0.00307062 0 0 Z " fill="#4C9061" transform="translate(115,231.8125)"/>
<path d="M0 0 C0.99 0.33 1.98 0.66 3 1 C2.50473123 7.10831482 -0.00923969 12.70998466 -3 18 C-6.54013225 20.36008817 -8.01121955 20.23463644 -12.19921875 20.1953125 C-13.40771484 20.18886719 -14.61621094 20.18242187 -15.86132812 20.17578125 C-17.7552832 20.15064453 -17.7552832 20.15064453 -19.6875 20.125 C-20.96173828 20.11597656 -22.23597656 20.10695312 -23.54882812 20.09765625 C-26.69940627 20.07405641 -29.84960983 20.04113194 -33 20 C-33.33 18.35 -33.66 16.7 -34 15 C-33.34 14.67 -32.68 14.34 -32 14 C-32 15.32 -32 16.64 -32 18 C-22.76 17.67 -13.52 17.34 -4 17 C-1.83830958 9.72760688 -1.83830958 9.72760688 -2 5 C-1.34 5 -0.68 5 0 5 C0 3.35 0 1.7 0 0 Z " fill="#4F9C69" transform="translate(192,149)"/>
<path d="M0 0 C0.72372803 0.04632568 1.44745605 0.09265137 2.19311523 0.14038086 C9.48875976 0.64908402 16.70676435 1.60341591 23.9375 2.6875 C23.9375 3.0175 23.9375 3.3475 23.9375 3.6875 C10.4075 3.6875 -3.1225 3.6875 -17.0625 3.6875 C-16.7325 2.6975 -16.4025 1.7075 -16.0625 0.6875 C-10.61636768 -0.12181352 -5.50304279 -0.38803092 0 0 Z " fill="#54B86D" transform="translate(254.0625,26.3125)"/>
<path d="M0 0 C0.99 0.33 1.98 0.66 3 1 C2.34 2.98 1.68 4.96 1 7 C0.34 7 -0.32 7 -1 7 C-1 8.32 -1 9.64 -1 11 C-1.66 11 -2.32 11 -3 11 C-3 11.99 -3 12.98 -3 14 C-3.66 14 -4.32 14 -5 14 C-5.1546875 14.8353125 -5.1546875 14.8353125 -5.3125 15.6875 C-6.14178408 18.4769101 -7.34299056 20.6139064 -9 23 C-9.66 23 -10.32 23 -11 23 C-11.268125 23.9075 -11.53625 24.815 -11.8125 25.75 C-12.89576294 28.71471963 -13.98359457 30.6169754 -16 33 C-16.66 32.67 -17.32 32.34 -18 32 C-17.05598958 30.66536458 -16.11197917 29.33072917 -15.16796875 27.99609375 C-13.85356157 25.8513902 -13.85356157 25.8513902 -12.6484375 22.765625 C-10.95170197 18.70709373 -8.74758364 15.04707241 -6.4375 11.3125 C-3.00535344 5.77506917 -3.00535344 5.77506917 0 0 Z " fill="#55A771" transform="translate(309,195)"/>
<path d="M0 0 C0.66 0.33 1.32 0.66 2 1 C2.59355614 3.64860427 2.74209269 6.29197322 3 9 C1 7 1 7 -1 4 C-4.86669378 13.26485898 -8.70123249 22.51348224 -12 32 C-13.125 28.25 -13.125 28.25 -12 26 C-11.77532169 24.46331135 -11.59203195 22.92031946 -11.4375 21.375 C-11.35371094 20.55773437 -11.26992187 19.74046875 -11.18359375 18.8984375 C-11.12300781 18.27195313 -11.06242188 17.64546875 -11 17 C-10.34 17 -9.68 17 -9 17 C-8.88398438 16.27039063 -8.76796875 15.54078125 -8.6484375 14.7890625 C-7.98896699 11.95254478 -7.05624382 9.89919365 -5.625 7.375 C-5.20476562 6.61960937 -4.78453125 5.86421875 -4.3515625 5.0859375 C-3.06623024 3.10221661 -1.73546252 1.59337787 0 0 Z " fill="#4EA06A" transform="translate(209,115)"/>
<path d="M0 0 C0.33 0 0.66 0 1 0 C1.37560976 6.38536585 1.37560976 6.38536585 -0.375 9.25 C-2.53129726 12.89911845 -2.88144076 16.41318781 -3.47265625 20.57421875 C-4 23 -4 23 -6 25 C-6.16687448 27.58354218 -6.16687448 27.58354218 -6 30 C-7.65 30.33 -9.3 30.66 -11 31 C-8.62712214 20.22317974 -4.2003464 10.16116505 0 0 Z " fill="#55A36F" transform="translate(190,78)"/>
<path d="M0 0 C2.24259912 2.24259912 2.80846201 3.79871534 3.875 6.76171875 C4.22046875 7.71626953 4.5659375 8.67082031 4.921875 9.65429688 C5.45554688 11.15573242 5.45554688 11.15573242 6 12.6875 C6.53367188 14.15993164 6.53367188 14.15993164 7.078125 15.66210938 C10.87417739 26.22165064 10.87417739 26.22165064 12 31 C11.67 31.66 11.34 32.32 11 33 C10.34 33 9.68 33 9 33 C8.7525 32.21625 8.505 31.4325 8.25 30.625 C7.25171523 27.72997418 6.14244934 24.99612738 4.9375 22.1875 C3.25619413 18.0741945 2.48584038 14.43559568 2.2734375 10.0078125 C2.10268794 7.92872457 2.10268794 7.92872457 0.9765625 5.9921875 C0 4 0 4 0 0 Z " fill="#55976A" transform="translate(212,37)"/>
<path d="M0 0 C0.66 0 1.32 0 2 0 C-0.23910005 8.07275741 -3.14030181 15.82660692 -6.1875 23.625 C-6.65091797 24.81996094 -7.11433594 26.01492187 -7.59179688 27.24609375 C-8.72448595 30.16539549 -9.86061648 33.08330604 -11 36 C-11.66 36 -12.32 36 -13 36 C-12.79503906 35.43152344 -12.59007812 34.86304688 -12.37890625 34.27734375 C-11.05868717 30.49355798 -10.00696773 27.04877411 -9.4375 23.0625 C-9 20 -9 20 -7 18 C-6.814375 16.3603125 -6.814375 16.3603125 -6.625 14.6875 C-5.91973894 10.52645972 -4.67184515 9.15763517 -2 6 C-0.74443113 2.82078213 -0.74443113 2.82078213 0 0 Z " fill="#4C9965" transform="translate(172,207)"/>
<path d="M0 0 C0.33 0 0.66 0 1 0 C1.67761359 9.49701511 2.21479489 18.91998442 1.6875 28.4375 C1.65277588 29.1399585 1.61805176 29.84241699 1.58227539 30.56616211 C1.33878014 34.21233591 0.73613504 36.81163445 -1 40 C-1.91973425 32.87641623 -2.02248005 26.03957797 -1.625 18.875 C-1.58117187 17.93785156 -1.53734375 17.00070313 -1.4921875 16.03515625 C-1.22084384 10.6459697 -0.74196347 5.34465208 0 0 Z " fill="#4A8B62" transform="translate(348,123)"/>
<path d="M0 0 C1.32 0.33 2.64 0.66 4 1 C4.50266794 3.12437048 5.0020561 5.24951726 5.5 7.375 C5.91765625 9.15003906 5.91765625 9.15003906 6.34375 10.9609375 C7 14 7 14 7 16 C7.66 16 8.32 16 9 16 C9.33569297 17.62451419 9.6684796 19.24962917 10 20.875 C10.185625 21.77992188 10.37125 22.68484375 10.5625 23.6171875 C11 26 11 26 11 28 C10.34 28 9.68 28 9 28 C8.60167969 26.85402344 8.20335937 25.70804688 7.79296875 24.52734375 C7.25794062 22.99735102 6.72277715 21.46740562 6.1875 19.9375 C5.92646484 19.18533203 5.66542969 18.43316406 5.39648438 17.65820312 C4.14960223 14.10227998 2.85956534 10.62329716 1.30078125 7.19140625 C0 4 0 4 0 0 Z " fill="#539869" transform="translate(249,226)"/>
<path d="M0 0 C1.18082308 3.54246925 0.84269928 3.96117973 -0.73828125 7.17578125 C-1.14167725 7.99771973 -1.54507324 8.8196582 -1.96069336 9.66650391 C-2.40678955 10.53968262 -2.85288574 11.41286133 -3.3125 12.3125 C-3.98841187 13.64933838 -3.98841187 13.64933838 -4.67797852 15.01318359 C-14.52441496 34.01627664 -14.52441496 34.01627664 -22 39 C-22 36 -22 36 -20 33.9375 C-19.34 33.298125 -18.68 32.65875 -18 32 C-18 31.34 -18 30.68 -18 30 C-17.29875 29.360625 -16.5975 28.72125 -15.875 28.0625 C-10.62871695 23.04105765 -7.30086137 16.05655934 -6 9 C-5.02246356 7.97803008 -4.0194119 6.98020375 -3 6 C-1.95377125 4.02379014 -0.94560065 2.0262871 0 0 Z " fill="#508E65" transform="translate(334,208)"/>
<path d="M0 0 C0.66 0 1.32 0 2 0 C2.25394531 0.7734375 2.50789062 1.546875 2.76953125 2.34375 C5.11338354 9.44350923 5.11338354 9.44350923 7.75 16.4375 C8.86522762 19.61589871 9.31057924 21.68715475 9 25 C8.34 25 7.68 25 7 25 C6.03599018 22.50206261 5.07872453 20.00186341 4.125 17.5 C3.85558594 16.80390625 3.58617187 16.1078125 3.30859375 15.390625 C1.50821969 10.64817625 0.0443895 5.96909531 -1 1 C-0.67 0.67 -0.34 0.34 0 0 Z " fill="#50A068" transform="translate(213,124)"/>
<path d="M0 0 C6.27 0.33 12.54 0.66 19 1 C18.67 1.99 18.34 2.98 18 4 C11.73 4 5.46 4 -1 4 C-0.67 2.68 -0.34 1.36 0 0 Z " fill="#549F68" transform="translate(177,193)"/>
<path d="M0 0 C1.65 0 3.3 0 5 0 C7.31915669 4.40027676 9.1231085 8.85042045 10.6875 13.5625 C10.91244141 14.20896484 11.13738281 14.85542969 11.36914062 15.52148438 C12.57442661 19.12268839 13.26985063 22.20021135 13 26 C11.68 25.34 10.36 24.68 9 24 C9 21.03 9 18.06 9 15 C8.01 14.67 7.02 14.34 6 14 C5.93941406 13.30132812 5.87882813 12.60265625 5.81640625 11.8828125 C5.73261719 10.97273437 5.64882812 10.06265625 5.5625 9.125 C5.48128906 8.22007812 5.40007812 7.31515625 5.31640625 6.3828125 C5.13010715 3.98889139 5.13010715 3.98889139 4 2 C1.98330173 0.86649466 1.98330173 0.86649466 0 0 Z " fill="#509566" transform="translate(243,233)"/>
<path d="M0 0 C0.99 0.495 0.99 0.495 2 1 C2.79451916 3.46450849 3.46218346 5.86243762 4.0625 8.375 C4.23950439 9.09582764 4.41650879 9.81665527 4.59887695 10.55932617 C5.80051257 15.64717475 6.5439745 20.63472428 6.82421875 25.86328125 C6.93021708 28.18628558 6.93021708 28.18628558 8 31 C6.68 30.67 5.36 30.34 4 30 C3.87882812 28.7934375 3.75765625 27.586875 3.6328125 26.34375 C3.46384119 24.72913529 3.29455344 23.11455368 3.125 21.5 C3.04636719 20.70851563 2.96773438 19.91703125 2.88671875 19.1015625 C2.47065308 15.19694623 1.92932935 11.45735728 0.9296875 7.65625 C0 4 0 4 0 0 Z " fill="#4CAE6E" transform="translate(316,106)"/>
<path d="M0 0 C2.89908098 4.34862147 4.39990811 9.10830002 6.1875 14 C6.56841797 15.010625 6.94933594 16.02125 7.34179688 17.0625 C7.69693359 18.031875 8.05207031 19.00125 8.41796875 20 C8.74563232 20.886875 9.0732959 21.77375 9.41088867 22.6875 C10 25 10 25 9 28 C8.34 28 7.68 28 7 28 C5.28346748 24.19910656 4.41904836 20.46143214 3.57421875 16.40625 C2.98787439 13.94918793 2.219726 11.62950985 1.375 9.25 C0.25882383 6.04730354 -0.33204135 3.43109399 0 0 Z " fill="#508F68" transform="translate(269,197)"/>
<path d="M0 0 C0.33 0 0.66 0 1 0 C0.54177532 3.46941546 0.10868317 6.67395049 -1 10 C-1.66 10 -2.32 10 -3 10 C-3 11.65 -3 13.3 -3 15 C4.59 15 12.18 15 20 15 C20 15.33 20 15.66 20 16 C12.08 16 4.16 16 -4 16 C-5.12618297 8.11671924 -5.12618297 8.11671924 -3.125 4.625 C-2.75632813 3.95726562 -2.38765625 3.28953125 -2.0078125 2.6015625 C-1 1 -1 1 0 0 Z " fill="#59AF74" transform="translate(164,151)"/>
<path d="M0 0 C0 0.33 0 0.66 0 1 C-0.78503906 1.06058594 -1.57007812 1.12117187 -2.37890625 1.18359375 C-11.94574028 1.47641563 -11.94574028 1.47641563 -21 4 C-21 3.34 -21 2.68 -21 2 C-21.66 2 -22.32 2 -23 2 C-23 1.34 -23 0.68 -23 0 C-15.78286328 -2.40571224 -7.4291069 -0.88517018 0 0 Z " fill="#429F5D" transform="translate(124,233)"/>
<path d="M0 0 C1.32 0.33 2.64 0.66 4 1 C2.88148408 4.10654163 1.75407561 7.2097823 0.625 10.3125 C0.30789062 11.19357422 -0.00921875 12.07464844 -0.3359375 12.98242188 C-0.8 14.25375977 -0.8 14.25375977 -1.2734375 15.55078125 C-1.55622559 16.33106689 -1.83901367 17.11135254 -2.13037109 17.9152832 C-3 20 -3 20 -5 23 C-5.99 23 -6.98 23 -8 23 C-8 22.34 -8 21.68 -8 21 C-7.54882812 20.56042969 -7.09765625 20.12085938 -6.6328125 19.66796875 C-1.73861366 14.66839242 -0.49745062 6.71558336 0 0 Z " fill="#509467" transform="translate(206,173)"/>
<path d="M0 0 C3.67900825 3.33013678 5.52991661 7.30212482 7 12 C6.75 15.5625 6.75 15.5625 6 18 C4.24082094 15.3612314 3.07080116 13.03921171 1.875 10.125 C1.34519531 8.86042969 1.34519531 8.86042969 0.8046875 7.5703125 C-0.03182698 4.89833906 -0.14952633 2.78118973 0 0 Z " fill="#51A66F" transform="translate(242,205)"/>
<path d="M0 0 C0.33 0 0.66 0 1 0 C1.26299506 5.12840368 0.66067137 10.13074753 -1 15 C-1.99 15.495 -1.99 15.495 -3 16 C-4.05352843 18.30965848 -5.05719096 20.6429774 -6 23 C-7.26080999 19.14089914 -6.42797683 16.97012226 -4.8984375 13.23046875 C-3.66266852 10.16253794 -2.66759182 7.02794466 -1.6484375 3.8828125 C-1 2 -1 2 0 0 Z " fill="#47A866" transform="translate(337,193)"/>
<path d="M0 0 C0.66 0 1.32 0 2 0 C2.33 1.32 2.66 2.64 3 4 C10.59 4.33 18.18 4.66 26 5 C26 5.33 26 5.66 26 6 C17.09 6 8.18 6 -1 6 C-1.33 5.34 -1.66 4.68 -2 4 C-1.0625 1.875 -1.0625 1.875 0 0 Z " fill="#559267" transform="translate(94,253)"/>
<path d="M0 0 C0.66 0 1.32 0 2 0 C1.8125 2.3125 1.8125 2.3125 1 5 C-3.03448276 8 -3.03448276 8 -6 8 C-6 8.66 -6 9.32 -6 10 C-10.15267176 13.11450382 -10.15267176 13.11450382 -13.3125 12.6875 C-13.869375 12.460625 -14.42625 12.23375 -15 12 C-15 11.34 -15 10.68 -15 10 C-14.21625 10.061875 -13.4325 10.12375 -12.625 10.1875 C-11.75875 10.125625 -10.8925 10.06375 -10 10 C-9.34 9.01 -8.68 8.02 -8 7 C-7.01 6.71125 -6.02 6.4225 -5 6.125 C-1.78533975 5.29961921 -1.78533975 5.29961921 -0.625 2.375 C-0.41875 1.59125 -0.2125 0.8075 0 0 Z " fill="#50A96D" transform="translate(310,244)"/>
<path d="M0 0 C0.33 1.32 0.66 2.64 1 4 C13.87 4.495 13.87 4.495 27 5 C27 5.33 27 5.66 27 6 C18.09 6 9.18 6 0 6 C-0.33 4.35 -0.66 2.7 -1 1 C-0.67 0.67 -0.34 0.34 0 0 Z " fill="#60926F" transform="translate(159,163)"/>
<path d="M0 0 C0.6875 1.5625 0.6875 1.5625 1 4 C0.31565248 5.72716278 -0.37874623 7.45282156 -1.171875 9.1328125 C-2.43823444 11.98809463 -3.15062334 14.99886913 -4 18 C-4.62469505 19.35350594 -5.2716331 20.69934483 -6 22 C-6.66 21.67 -7.32 21.34 -8 21 C-7.505 20.360625 -7.01 19.72125 -6.5 19.0625 C-4.7049003 15.39750478 -4.86547552 12.98004306 -5.1875 8.98828125 C-5.125625 8.33214844 -5.06375 7.67601563 -5 7 C-4.01 6.34 -3.02 5.68 -2 5 C-0.79549696 2.44816596 -0.79549696 2.44816596 0 0 Z " fill="#4CB269" transform="translate(195,69)"/>
<path d="M0 0 C6.9241573 6.68539326 6.9241573 6.68539326 7.1875 11.25 C7.125625 12.1575 7.06375 13.065 7 14 C6.01 13.67 5.02 13.34 4 13 C3.0859375 11.07421875 3.0859375 11.07421875 2.375 8.6875 C2.01535156 7.51767578 2.01535156 7.51767578 1.6484375 6.32421875 C1.06236231 4.22352756 0.51407509 2.11934729 0 0 Z " fill="#5DAE76" transform="translate(305,84)"/>
<path d="M0 0 C0.66 0 1.32 0 2 0 C2.67736481 2.03814233 3.34143534 4.08070555 4 6.125 C4.37125 7.26195313 4.7425 8.39890625 5.125 9.5703125 C5.96911949 12.87895941 6.16509276 15.60528016 6 19 C5.34 18.67 4.68 18.34 4 18 C3.42003735 15.70624771 2.93444676 13.38820683 2.5 11.0625 C1.77725944 6.00489981 1.77725944 6.00489981 -1 2 C-0.67 1.34 -0.34 0.68 0 0 Z " fill="#4CA96C" transform="translate(339,94)"/>
<path d="M0 0 C9.24 0 18.48 0 28 0 C28.33 0.66 28.66 1.32 29 2 C28.01 3.485 28.01 3.485 27 5 C26.67 3.68 26.34 2.36 26 1 C17.42 1 8.84 1 0 1 C0 0.67 0 0.34 0 0 Z " fill="#5CA876" transform="translate(258,172)"/>
<path d="M0 0 C0.33 0 0.66 0 1 0 C1.39363688 7.74152536 -0.05789567 14.52058632 -2 22 C-2.33 22 -2.66 22 -3 22 C-3.09765625 15.84765625 -3.09765625 15.84765625 -3 14 C-2.67 13.67 -2.34 13.34 -2 13 C-1.60333773 10.81980521 -1.25684763 8.6303537 -0.9375 6.4375 C-0.76089844 5.23996094 -0.58429688 4.04242188 -0.40234375 2.80859375 C-0.26957031 1.88175781 -0.13679688 0.95492187 0 0 Z " fill="#58AE73" transform="translate(346,154)"/>
<path d="M0 0 C0.66 0.33 1.32 0.66 2 1 C2.59355614 3.64860427 2.74209269 6.29197322 3 9 C1 7 1 7 -1 4 C-1.99 6.64 -2.98 9.28 -4 12 C-4.33 12 -4.66 12 -5 12 C-5.35338623 9.03155565 -5.5417682 6.84401782 -3.88671875 4.265625 C-2.64496832 2.79651181 -1.32662082 1.39295186 0 0 Z " fill="#5A966F" transform="translate(209,115)"/>
<path d="M0 0 C2 2 2 2 3 5 C3.495 5.45375 3.99 5.9075 4.5 6.375 C6.46142477 8.49987683 6.70855919 10.15845213 7 13 C6.67 13.66 6.34 14.32 6 15 C5.34 15 4.68 15 4 15 C2.23107476 10.07227969 1.0681847 5.11365014 0 0 Z " fill="#58A670" transform="translate(217,55)"/>
<path d="M0 0 C0.66 0.33 1.32 0.66 2 1 C0.62184294 2.37215202 -0.77829151 3.72225767 -2.1875 5.0625 C-2.96480469 5.81660156 -3.74210937 6.57070313 -4.54296875 7.34765625 C-7 9 -7 9 -9.71875 8.875 C-12 8 -12 8 -13.3125 5.9375 C-13.539375 5.298125 -13.76625 4.65875 -14 4 C-13.34 4 -12.68 4 -12 4 C-11.67 4.66 -11.34 5.32 -11 6 C-8.23723823 5.47731534 -5.6739124 4.89130413 -3 4 C-3 3.34 -3 2.68 -3 2 C-2.01 1.34 -1.02 0.68 0 0 Z " fill="#568D66" transform="translate(307,250)"/>
<path d="M0 0 C1.32 0.33 2.64 0.66 4 1 C4.66 4.3 5.32 7.6 6 11 C2 9 2 9 0.75 6.625 C0 4 0 4 0 0 Z " fill="#53A56E" transform="translate(249,226)"/>
<path d="M0 0 C4.21814817 3.9700218 7.61227103 8.30840284 11 13 C10.01 13.495 10.01 13.495 9 14 C4.50176596 9.50176596 1.36181491 6.35513625 0 0 Z " fill="#4E9669" transform="translate(316,53)"/>
<path d="M0 0 C1.91385532 2.87078299 2.96432952 5.33411656 4.125 8.5625 C4.47820312 9.53316406 4.83140625 10.50382813 5.1953125 11.50390625 C6 14 6 14 6 16 C5.01 15.67 4.02 15.34 3 15 C1.18837986 10.06836739 0.54837468 5.20955943 0 0 Z " fill="#539265" transform="translate(279,225)"/>
<path d="M0 0 C0.66 0.33 1.32 0.66 2 1 C0.87204037 5.10899581 -0.33510818 9.07561214 -2 13 C-2.66 12.67 -3.32 12.34 -4 12 C-3.71640113 10.5608866 -3.42278601 9.12374482 -3.125 7.6875 C-2.96257812 6.88699219 -2.80015625 6.08648437 -2.6328125 5.26171875 C-2 3 -2 3 0 0 Z " fill="#4FB06C" transform="translate(144,31)"/>
<path d="M0 0 C0.66 0.33 1.32 0.66 2 1 C2 1.66 2 2.32 2 3 C2.99 3 3.98 3 5 3 C4.67 4.32 4.34 5.64 4 7 C3.01 6.34 2.02 5.68 1 5 C0.67 5.66 0.34 6.32 0 7 C-0.66 7 -1.32 7 -2 7 C-2.33 5.68 -2.66 4.36 -3 3 C-2.34 3 -1.68 3 -1 3 C-0.67 2.01 -0.34 1.02 0 0 Z " fill="#44AA65" transform="translate(323,64)"/>
<path d="M0 0 C0.33 0 0.66 0 1 0 C1.26299506 5.12840368 0.66067137 10.13074753 -1 15 C-1.99 15.495 -1.99 15.495 -3 16 C-4.81478988 10.88559217 -2.90421729 6.7982505 -1 2 C-0.67 1.34 -0.34 0.68 0 0 Z " fill="#5AB47B" transform="translate(321,162)"/>
<path d="M0 0 C2.76223278 2.76223278 2.57856291 5.20706617 3 9 C1.02 9.99 1.02 9.99 -1 11 C-1.66 10.34 -2.32 9.68 -3 9 C-2.34 8.67 -1.68 8.34 -1 8 C-0.27840576 6.35636866 0.39351421 4.68949614 1 3 C0.34 3 -0.32 3 -1 3 C-0.67 2.01 -0.34 1.02 0 0 Z " fill="#4D9868" transform="translate(255,158)"/>
<path d="M0 0 C2.5 1.1875 2.5 1.1875 5 3 C5.3125 5.6875 5.3125 5.6875 5 8 C4.01 6.68 3.02 5.36 2 4 C0.35 5.65 -1.3 7.3 -3 9 C-2.30058404 5.85262818 -1.23921302 2.97411124 0 0 Z " fill="#4CB06C" transform="translate(207,112)"/>
<path d="M0 0 C3.395177 3.07182681 5.87597306 6.13959595 6.1875 10.8125 C6.125625 11.534375 6.06375 12.25625 6 13 C5.34 12.67 4.68 12.34 4 12 C4 10.68 4 9.36 4 8 C3.34 8 2.68 8 2 8 C2 7.34 2 6.68 2 6 C1.34 5.67 0.68 5.34 0 5 C0 3.35 0 1.7 0 0 Z " fill="#4FA169" transform="translate(329,71)"/>
<path d="M0 0 C0.33 0 0.66 0 1 0 C1 1.65 1 3.3 1 5 C0.34 5 -0.32 5 -1 5 C-1 5.99 -1 6.98 -1 8 C-0.34 8.33 0.32 8.66 1 9 C-1.375 10.5625 -1.375 10.5625 -4 12 C-4.66 11.67 -5.32 11.34 -6 11 C-5.566875 10.484375 -5.13375 9.96875 -4.6875 9.4375 C-2.59680969 6.417614 -1.37473935 3.4041165 0 0 Z " fill="#4DB169" transform="translate(203,47)"/>
<path d="M0 0 C1.44319692 0.90767102 2.87934106 1.82656106 4.3125 2.75 C5.11300781 3.26046875 5.91351563 3.7709375 6.73828125 4.296875 C9.00368861 6.00277761 10.42684167 7.65808145 12 10 C10.68 9.67 9.36 9.34 8 9 C8 8.34 8 7.68 8 7 C6.8553125 6.5978125 6.8553125 6.5978125 5.6875 6.1875 C3.11011382 5.04865495 1.73045136 4.18583329 0 2 C0 1.34 0 0.68 0 0 Z " fill="#519266" transform="translate(299,38)"/>
<path d="M0 0 C1.72274487 2.58411731 2.68895522 4.54902656 3.6875 7.4375 C3.95949219 8.19933594 4.23148438 8.96117188 4.51171875 9.74609375 C5.04729142 12.21829721 4.80445309 13.62983284 4 16 C1.18150494 10.45108785 -0.5326514 6.258654 0 0 Z " fill="#56946C" transform="translate(232,92)"/>
<path d="M0 0 C2.0343459 1.41519715 2.90410393 2.54982123 3.421875 4.98046875 C3.66273952 6.98176954 3.83532741 8.9909944 4 11 C3.67 10.34 3.34 9.68 3 9 C2.34 9 1.68 9 1 9 C-0.4783226 6.04335481 -0.06032783 3.25770263 0 0 Z " fill="#4CAE6C" transform="translate(218,38)"/>
<path d="M0 0 C0.66 0 1.32 0 2 0 C0.78184562 4.68520915 -0.69559987 8.70543612 -3 13 C-3.66 12.01 -4.32 11.02 -5 10 C-3.35 6.7 -1.7 3.4 0 0 Z " fill="#4DAD6A" transform="translate(157,243)"/>
<path d="M0 0 C2.62386487 3.06117568 3 3.73173127 3 8 C2.01 8 1.02 8 0 8 C-0.66 5.69 -1.32 3.38 -2 1 C-1.34 0.67 -0.68 0.34 0 0 Z " fill="#54A170" transform="translate(223,150)"/>
<path d="M0 0 C0.66 0 1.32 0 2 0 C2.12375 0.61875 2.2475 1.2375 2.375 1.875 C2.87197356 4.19120832 2.87197356 4.19120832 5 6 C3.02 6 1.04 6 -1 6 C-1.33 5.34 -1.66 4.68 -2 4 C-1.0625 1.875 -1.0625 1.875 0 0 Z " fill="#4A955C" transform="translate(94,253)"/>
<path d="M0 0 C1.07310858 3.27185553 0.89263102 5.42947592 0.0625 8.75 C-0.22947266 9.94882813 -0.22947266 9.94882813 -0.52734375 11.171875 C-0.68332031 11.77515625 -0.83929688 12.3784375 -1 13 C-1.66 12.67 -2.32 12.34 -3 12 C-3.43200679 7.24792529 -1.98489083 4.21789302 0 0 Z " fill="#4CA463" transform="translate(125,236)"/>
<path d="M0 0 C0.66 0 1.32 0 2 0 C2.625 2.875 2.625 2.875 3 6 C2.34 6.66 1.68 7.32 1 8 C1 6.68 1 5.36 1 4 C0.34 4 -0.32 4 -1 4 C-0.67 2.68 -0.34 1.36 0 0 Z M-1 7 C-0.34 7.66 0.32 8.32 1 9 C0.01 9.33 -0.98 9.66 -2 10 C-1.67 9.01 -1.34 8.02 -1 7 Z " fill="#43A763" transform="translate(178,110)"/>
<path d="M0 0 C1.32 0 2.64 0 4 0 C4.625 2.375 4.625 2.375 5 5 C4.34 5.66 3.68 6.32 3 7 C3 6.34 3 5.68 3 5 C2.34 5 1.68 5 1 5 C0.67 3.35 0.34 1.7 0 0 Z " fill="#60A674" transform="translate(207,31)"/>
<path d="M0 0 C0.33 0 0.66 0 1 0 C0.67 3.63 0.34 7.26 0 11 C-0.99 10.01 -1.98 9.02 -3 8 C-2.01 5.36 -1.02 2.72 0 0 Z " fill="#4D9362" transform="translate(127,247)"/>
<path d="M0 0 C1.9375 1.125 1.9375 1.125 4 3 C4.75 6.1875 4.75 6.1875 5 9 C4.01 9 3.02 9 2 9 C0.50178941 5.62902617 0 3.79557881 0 0 Z " fill="#4D9F6B" transform="translate(274,216)"/>
<path d="M0 0 C0.33 1.32 0.66 2.64 1 4 C0.34 4 -0.32 4 -1 4 C-1 5.32 -1 6.64 -1 8 C-2.32 8.33 -3.64 8.66 -5 9 C-4.67 7.68 -4.34 6.36 -4 5 C-3.34 5 -2.68 5 -2 5 C-1.34 3.35 -0.68 1.7 0 0 Z " fill="#57AC74" transform="translate(315,185)"/>
<path d="M0 0 C0.66 0 1.32 0 2 0 C2.66 2.97 3.32 5.94 4 9 C2.68 8.67 1.36 8.34 0 8 C0 5.36 0 2.72 0 0 Z " fill="#50A06C" transform="translate(320,128)"/>
<path d="M0 0 C0.66 0.33 1.32 0.66 2 1 C2.39764263 2.98821313 2.72428861 4.99124558 3 7 C3.31674575 8.33737094 3.64270064 9.67288808 4 11 C2.0625 10.4375 2.0625 10.4375 0 9 C-1.42682927 2.85365854 -1.42682927 2.85365854 0 0 Z " fill="#49B467" transform="translate(211,36)"/>
<path d="M0 0 C2.67927341 4.01891012 2.15601248 6.24161923 2 11 C1.67 9.68 1.34 8.36 1 7 C0.34 7 -0.32 7 -1 7 C-0.67 4.69 -0.34 2.38 0 0 Z " fill="#54A56E" transform="translate(224,70)"/>
<path d="M0 0 C1.60156595 4.00391487 0.4087561 7.07031192 -1 11 C-1.99 11.495 -1.99 11.495 -3 12 C-2.68950274 10.56206608 -2.3765224 9.1246682 -2.0625 7.6875 C-1.88847656 6.88699219 -1.71445313 6.08648437 -1.53515625 5.26171875 C-1 3 -1 3 0 0 Z " fill="#56946A" transform="translate(131,235)"/>
<path d="M0 0 C0.66 0.33 1.32 0.66 2 1 C-1.75 7.875 -1.75 7.875 -4 9 C-3.814375 8.38125 -3.62875 7.7625 -3.4375 7.125 C-2.76313824 4.95839822 -2.76313824 4.95839822 -4 3 C-3.01 2.67 -2.02 2.34 -1 2 C-0.67 1.34 -0.34 0.68 0 0 Z " fill="#4CAC6B" transform="translate(321,229)"/>
<path d="M0 0 C0.268125 0.556875 0.53625 1.11375 0.8125 1.6875 C2.10122647 4.19712523 3.52926478 6.59334236 5 9 C3.35 8.67 1.7 8.34 0 8 C-0.98120464 4.94736336 -0.98120464 3.05263664 0 0 Z " fill="#45AD65" transform="translate(332,79)"/>
<path d="M0 0 C2.5654594 2.5654594 2.54046087 4.47686668 3 8 C1.68 7.67 0.36 7.34 -1 7 C-0.67 4.69 -0.34 2.38 0 0 Z " fill="#4D905C" transform="translate(288,250)"/>
<path d="M0 0 C0.625 1.8125 0.625 1.8125 1 4 C0.01 5.485 0.01 5.485 -1 7 C-1.66 7 -2.32 7 -3 7 C-2.25 2.25 -2.25 2.25 0 0 Z " fill="#46AC65" transform="translate(131,244)"/>
<path d="M0 0 C0.99 0.33 1.98 0.66 3 1 C3 1.66 3 2.32 3 3 C2.01 3 1.02 3 0 3 C0.66 5.31 1.32 7.62 2 10 C1.01 9.67 0.02 9.34 -1 9 C-1.09765625 2.84765625 -1.09765625 2.84765625 -1 1 C-0.67 0.67 -0.34 0.34 0 0 Z " fill="#49A462" transform="translate(269,194)"/>
<path d="M0 0 C1.485 0.99 1.485 0.99 3 2 C3.1875 4.625 3.1875 4.625 3 7 C1.68 6.34 0.36 5.68 -1 5 C-0.67 3.35 -0.34 1.7 0 0 Z " fill="#46955C" transform="translate(253,252)"/>
<path d="M0 0 C1.98 0.99 1.98 0.99 4 2 C4 4.31 4 6.62 4 9 C1.18167487 7.59083743 0.97406539 5.92219617 0 3 C0 2.01 0 1.02 0 0 Z " fill="#49AE65" transform="translate(282,240)"/>
<path d="M0 0 C0.33 0.99 0.66 1.98 1 3 C1.66 3 2.32 3 3 3 C2.67 4.98 2.34 6.96 2 9 C0 7 0 7 -1 4 C-0.5625 1.8125 -0.5625 1.8125 0 0 Z " fill="#44AB63" transform="translate(345,125)"/>
<path d="M0 0 C0.66 0.33 1.32 0.66 2 1 C2.59355614 3.64860427 2.74209269 6.29197322 3 9 C1 7 1 7 0 4 C-0.66 3.34 -1.32 2.68 -2 2 C-1.34 1.34 -0.68 0.68 0 0 Z " fill="#4D9464" transform="translate(209,115)"/>
</svg>
